<svg xmlns="http://www.w3.org/2000/svg" xmlns:xlink="http://www.w3.org/1999/xlink" id="Layer_1" x="0px" y="0px" viewBox="0 0 1920 5" style="enable-background:new 0 0 1920 5;" xml:space="preserve"><style type="text/css">	.st0{fill:#EA1D2D;}	.st1{fill:#D19F2A;}	.st2{fill:#2D9A47;}	.st3{fill:#C22033;}	.st4{fill:#EF412A;}	.st5{fill:#00ADD8;}	.st6{fill:#FDB714;}	.st7{fill:#8F1838;}	.st8{fill:#F36E24;}	.st9{fill:#E01A83;}	.st10{fill:#F99D25;}	.st11{fill:#CD8B2A;}	.st12{fill:#48773C;}	.st13{fill:#007DBB;}	.st14{fill:#40AE49;}	.st15{fill:#00558A;}	.st16{fill:#1A3668;}</style><g>	<g>		<rect y="-1" class="st0" width="112.9" height="6"/>	</g>	<g>		<rect x="112.9" y="-1" class="st1" width="112.9" height="6"/>	</g>	<g>		<rect x="225.8" y="-1" class="st2" width="112.9" height="6"/>	</g>	<g>		<rect x="338.7" y="-1" class="st3" width="112.9" height="6"/>	</g>	<g>		<rect x="451.6" y="-1" class="st4" width="112.9" height="6"/>	</g>	<g>		<rect x="564.5" y="-1" class="st5" width="112.9" height="6"/>	</g>	<g>		<rect x="677.4" y="-1" class="st6" width="112.9" height="6"/>	</g>	<g>		<rect x="790.4" y="-1" class="st7" width="112.9" height="6"/>	</g>	<g>		<rect x="903.9" y="-1" class="st8" width="112.9" height="6"/>	</g>	<g>		<rect x="1016.8" y="-1" class="st9" width="112.9" height="6"/>	</g>	<g>		<rect x="1129.7" y="-1" class="st10" width="112.9" height="6"/>	</g>	<g>		<rect x="1242.6" y="-1" class="st11" width="112.9" height="6"/>	</g>	<g>		<rect x="1355.5" y="-1" class="st12" width="112.9" height="6"/>	</g>	<g>		<rect x="1468.4" y="-1" class="st13" width="112.9" height="6"/>	</g>	<g>		<rect x="1581.3" y="-1" class="st14" width="112.9" height="6"/>	</g>	<g>		<rect x="1694.2" y="-1" class="st15" width="112.9" height="6"/>	</g>	<g>		<rect x="1807.1" y="-1" class="st16" width="112.9" height="6"/>	</g></g></svg>