<svg width="40" height="24" viewBox="0 0 48 29" class="braintree-icon--bordered" xmlns="http://www.w3.org/2000/svg">
  <title>Generic Card</title>

  <!-- Card Background -->
  <path d="M46.177 29H1.823C0.9 29 0 28.13 0 27.187V1.813C0 0.87 0.9 0 1.823 0h44.354C47.1 0 48 0.87 48 1.813v25.375C48 28.13 47.1 29 46.177 29z" fill="#FFF"/>

  <!-- Chip -->
  <path d="M4.8 9.14c0-0.427 0.57-0.973 1.067-0.973h7.466c0.496 0 1.067 0.546 1.067 0.972v3.888c0 0.425-0.57 0.972-1.067 0.972H5.867c-0.496 0-1.067-0.547-1.067-0.972v-3.89z" fill="#828282"/>

  <!-- Bottom small rectangles -->
  <rect x="10.8" y="22.167" width="3.6" height="2.333" rx="1.167" fill="#828282"/>
  <rect x="4.8" y="22.167" width="3.6" height="2.333" rx="1.167" fill="#828282"/>

  <!-- Stripe -->
  <path d="M6.55 16.333h34.9c0.966 0 1.75 0.784 1.75 1.75 0 0.967-0.784 1.75-1.75 1.75H6.55c-0.966 0-1.75-0.783-1.75-1.75 0-0.966 0.784-1.75 1.75-1.75z" fill="#828282"/>

  <!-- Circle -->
  <ellipse cx="40.2" cy="6.417" rx="3" ry="2.917" fill="#828282"/>
</svg>