<svg xmlns="http://www.w3.org/2000/svg" fill="none" viewBox="0 0 256 256">
    <path fill="#001991" d="M128 186.214c-32.0777 0-58.1909-26.113-58.1909-58.191 0-32.0778 26.1132-58.191 58.1909-58.191 32.078 0 58.191 26.1132 58.191 58.191 0 32.078-26.113 58.191-58.191 58.191Zm0-96.985c-21.385 0-38.7939 17.409-38.7939 38.794 0 21.385 17.4089 38.794 38.7939 38.794s38.794-17.409 38.794-38.794c0-21.385-17.409-38.794-38.794-38.794Z"/>
    <path fill="url(#a)" fill-rule="evenodd" d="M39.6709 177.73C64.499 208.668 95.0493 225.01 128 225.01c32.951 0 63.501-16.342 88.329-47.256 18.257-22.743 27.034-45.292 27.398-46.238.849-2.23.849-4.728 0-6.958-.364-.946-9.141-23.495-27.398-46.2378C191.501 47.382 160.951 31.04 128 31.04c-32.9507 0-63.501 16.342-88.3291 47.2559-18.2574 22.7431-27.0345 45.2921-27.3982 46.2381-.8486 2.23-.8486 4.728 0 6.958.3637.946 9.1408 23.495 27.3982 46.238Zm15.4448-11.735c-12.4868-15.47-20.2214-31.181-23.2522-37.97C38.798 112.507 70.1969 50.437 128 50.437c27.107 0 51.644 13.3355 72.884 39.6185 12.511 15.4695 20.221 31.1805 23.252 37.9695-6.934 15.518-38.333 77.588-96.136 77.588-27.107 0-51.6446-13.336-72.8843-39.618Zm74.8973-19.616c4.849-7.008 9.335-11.493 16.342-16.342 1.382-.97 1.382-3.031 0-4.001-7.007-4.849-11.493-9.335-16.342-16.342-.97-1.406-3.031-1.406-4.001 0-4.849 7.007-9.335 11.493-16.342 16.342-1.406.97-1.406 3.031 0 4.001 7.007 4.849 11.493 9.334 16.342 16.342.97 1.406 3.031 1.406 4.001 0Z" clip-rule="evenodd"/>
    <defs>
        <linearGradient id="a" x1="11.2753" x2="240.727" y1="244.756" y2="15.3042" gradientUnits="userSpaceOnUse"><stop stop-color="#00A0DC"/><stop offset="1" stop-color="#99D9F1"/>
        </linearGradient>
    </defs>
</svg>