<svg xmlns="http://www.w3.org/2000/svg" width="32" height="32" viewBox="134 4 32 32" enable-background="new 134 4 32 32"><path fill="#F5821F" d="M134 4h32v32h-32V4z"/><path fill="#fff" d="M140 27.3c0-.7.3-1.4.8-1.9s1.1-.8 1.9-.8c.8 0 1.4.3 1.9.8s.8 1.1.8 1.9c0 .7-.3 1.4-.8 1.9-.6.5-1.2.8-1.9.8s-1.4-.3-1.9-.8-.8-1.1-.8-1.9zm0-6.7v-3.8c2.4 0 4.6.6 6.6 1.8 2 1.2 3.6 2.8 4.8 4.8 1.2 2 1.8 4.2 1.8 6.6h-3.8c0-2.6-.9-4.8-2.7-6.6-1.9-1.9-4.1-2.8-6.7-2.8zm0-6.8V10c2.7 0 5.3.5 7.8 1.6s4.6 2.5 6.4 4.3c1.8 1.8 3.2 3.9 4.3 6.4s1.5 5 1.5 7.7h-3.8c0-2.2-.4-4.3-1.3-6.3s-2-3.7-3.4-5.2-3.2-2.6-5.2-3.4c-2-.8-4.1-1.3-6.3-1.3z"/></svg>