<svg xmlns="http://www.w3.org/2000/svg" xmlns:xlink="http://www.w3.org/1999/xlink" width="16" height="16" viewBox="0 0 16 16"><path fill="#666" d="M12.861 16H3.14A3.141 3.141 0 0 1 0 12.864V3.153A3.142 3.142 0 0 1 3.141.016h3.686v1.016H3.141a2.126 2.126 0 0 0-2.125 2.121v9.711c0 1.168.953 2.119 2.124 2.119h9.722c1.17 0 2.123-.951 2.123-2.12V8.699H16v4.164A3.141 3.141 0 0 1 12.861 16z"/><path fill="#666" d="M12.834 2.459l.717.719-8.957 8.935-.718-.719 8.958-8.935z"/><defs><path id="a" d="M15.998 0v6.201L9.683.001z"/></defs><use xlink:href="#a" overflow="visible" fill="#666"/><clipPath id="b"><use xlink:href="#a" overflow="visible"/></clipPath><path clip-path="url(#b)" fill="#666" d="M12.706-3.711l6.899 6.89-3.844 3.839L8.864.128l3.842-3.839z"/></svg>