<?xml version="1.0" encoding="UTF-8"?><svg id="Layer_2" xmlns="http://www.w3.org/2000/svg" xmlns:xlink="http://www.w3.org/1999/xlink" viewBox="0 0 240.34 590.5"><defs><style>.cls-1{stroke:#f3dfc1;stroke-width:2px;}.cls-1,.cls-2,.cls-3,.cls-4,.cls-5,.cls-6,.cls-7{fill:none;stroke-miterlimit:10;}.cls-8{fill:#f3dfc1;}.cls-8,.cls-9,.cls-10,.cls-11,.cls-12,.cls-13,.cls-14,.cls-15,.cls-16{stroke-width:0px;}.cls-2,.cls-3{stroke-dasharray:0 0 6 6;}.cls-2,.cls-3,.cls-5{stroke-width:1.5px;}.cls-2,.cls-7{stroke:#292e3d;}.cls-3,.cls-6{stroke:#e63946;}.cls-17,.cls-4,.cls-12,.cls-13,.cls-16{opacity:.11;}.cls-4,.cls-5{stroke:#2e2e2e;}.cls-9{fill:#fff;}.cls-5{stroke-dasharray:0 0 6.06 6.06;}.cls-10{fill:#292e3d;}.cls-11{fill:url(#radial-gradient-2);}.cls-11,.cls-14{opacity:.61;}.cls-12{fill:#6e6e6e;}.cls-13{fill:#5d5d5d;}.cls-14{fill:url(#radial-gradient);}.cls-15{fill:#e63946;}.cls-16{fill:#2e2e2e;}</style><radialGradient id="radial-gradient" cx="-598.36" cy="-315.67" fx="-598.36" fy="-315.67" r="71.98" gradientTransform="translate(-59.62 745.68) rotate(77.56)" gradientUnits="userSpaceOnUse"><stop offset="0" stop-color="#292e3d"/><stop offset=".14" stop-color="#292e3d" stop-opacity=".77"/><stop offset=".47" stop-color="#292e3d" stop-opacity=".35"/><stop offset=".77" stop-color="#292e3d" stop-opacity=".09"/><stop offset="1" stop-color="#292e3d" stop-opacity="0"/></radialGradient><radialGradient id="radial-gradient-2" cx="-293.58" cy="-238.86" fx="-293.58" fy="-238.86" r="81.86" gradientTransform="translate(-59.62 745.68) rotate(77.56)" gradientUnits="userSpaceOnUse"><stop offset="0" stop-color="#e63946"/><stop offset=".12" stop-color="#e63946" stop-opacity=".81"/><stop offset=".29" stop-color="#e63946" stop-opacity=".57"/><stop offset=".46" stop-color="#e63946" stop-opacity=".36"/><stop offset=".62" stop-color="#e63946" stop-opacity=".21"/><stop offset=".76" stop-color="#e63946" stop-opacity=".09"/><stop offset=".9" stop-color="#e63946" stop-opacity=".02"/><stop offset="1" stop-color="#e63946" stop-opacity="0"/></radialGradient></defs><g id="Layer_1-2"><g class="cls-17"><circle class="cls-5" cx="185.54" cy="212.53" r="54.05" transform="translate(-95.94 193.45) rotate(-45)"/></g><circle class="cls-16" cx="185.54" cy="7.86" r="7.86"/><circle class="cls-16" cx="132.36" cy="580.17" r="7.86"/><circle class="cls-12" cx="10.32" cy="84.19" r="10.32"/><circle class="cls-12" cx="132.36" cy="523.67" r="10.32"/><circle class="cls-13" cx="35" cy="412.39" r="8.74"/><circle class="cls-12" cx="185.54" cy="212.53" r="31.68"/><polyline class="cls-4" points="185.54 7.86 10.32 84.19 185.54 212.53 35 412.39 132.36 525.06 132.36 580.17"/><line class="cls-6" x1="191.79" y1="507.13" x2="191.79" y2="580.17"/><line class="cls-2" x1="111.54" y1="407.4" x2="191.79" y2="507.13"/><line class="cls-7" x1="111.54" y1="310.62" x2="111.54" y2="407.4"/><line class="cls-3" x1="29.05" y1="310.62" x2="111.54" y2="310.62"/><line class="cls-6" x1="119.8" y1="93.38" x2="29.05" y2="310.62"/><circle class="cls-1" cx="29.05" cy="310.62" r="15.05"/><circle class="cls-10" cx="29.05" cy="310.62" r="7.86"/><circle class="cls-10" cx="119.8" cy="92.28" r="31.63"/><circle class="cls-14" cx="119.8" cy="93.38" r="71.98"/><path class="cls-9" d="m132.35,93.2v.1c0,1.45-1.18,2.61-2.61,2.61h-7.17v7.21c0,1.45-1.18,2.61-2.61,2.61s-2.61-1.18-2.61-2.61v-7.21h-7.25c-1.45.13-2.73-.92-2.86-2.38-.13-1.46.92-2.73,2.38-2.86h7.66v-7.21c.11-1.43,1.37-2.51,2.83-2.39,1.27.08,2.32,1.1,2.39,2.39v7.21h7.25c1.41-.02,2.59,1.1,2.61,2.53h0Z"/><circle class="cls-11" cx="110.42" cy="407.55" r="81.86"/><circle class="cls-7" cx="110.42" cy="407.55" r="44.16"/><circle class="cls-15" cx="110.42" cy="407.55" r="31.68"/><circle class="cls-15" cx="111.54" cy="310.62" r="10.32"/><circle class="cls-15" cx="191.79" cy="580.17" r="10.32"/><circle class="cls-8" cx="191.79" cy="507.13" r="10.32"/></g></svg>