<svg width="40" height="24" viewBox="0 0 40 24" class="braintree-icon--bordered" xmlns="http://www.w3.org/2000/svg">
  <title>CVV Back</title>

  <!-- Card background -->
  <path d="M38.48 24H1.52C0.75 24 0 23.28 0 22.5v-21C0 0.72 0.75 0 1.52 0h36.96C39.25 0 40 0.72 40 1.5v21c0 0.78-0.75 1.5-1.52 1.5z" fill="#FFF"/>

  <!-- Magnetic stripe -->
  <rect x="0" y="5" width="40" height="4" fill="#828282"/>

  <!-- CVV box -->
  <path d="M20 13.772v5.456c0 0.423 0.37 0.772 0.82 0.772h13.36c0.45 0 0.82-0.35 0.82-0.772v-5.456c0-0.423-0.37-0.772-0.82-0.772H20.82c-0.45 0-0.82 0.35-0.82 0.772z" fill="#000"/>

  <!-- CVV box border -->
  <path d="M19 13.63c0-0.9 0.76-1.63 1.68-1.63h13.64c0.928 0 1.68 0.737 1.68 1.63v5.74c0 0.9-0.76 1.63-1.68 1.63H20.68c-0.928 0-1.68-0.737-1.68-1.63v-5.74z" fill="#000" fill-rule="nonzero"/>

  <!-- CVV dots -->
  <circle cx="23.5" cy="16.5" r="1.5" fill="#828282"/>
  <circle cx="27.5" cy="16.5" r="1.5" fill="#828282"/>
  <circle cx="31.5" cy="16.5" r="1.5" fill="#828282"/>
</svg>