<svg id="earnings-barchart" data-testid="earnings-barchart" viewBox="0 0 600 200" class="⚙ as-3g ⚙pidgij">
    <g id="earnings-barchart-y-gridlines" transform="translate(0,9.44386118761409)" fill="none" font-size="10" font-family="sans-serif" text-anchor="end">
        <g class="tick" opacity="1" transform="translate(0,162.22455524954364)"><line stroke="#d7d7d7" x2="600" stroke-width="0.7869884323011742"></line><text fill="currentColor" x="-3" dy="0.32em"></text></g>
        <g class="tick" opacity="1" transform="translate(0,85.83420821857887)"><line stroke="#d7d7d7" x2="600" stroke-width="0.7869884323011742"></line><text fill="currentColor" x="-3" dy="0.32em"></text></g>
        <g class="tick" opacity="1" transform="translate(0,9.44386118761409)"><line stroke="#d7d7d7" x2="600" stroke-width="0.7869884323011742"></line><text fill="currentColor" x="-3" dy="0.32em"></text></g>
    </g>
    <path d="M42,76.11109206778362      h36      a2,2 0 0 1 2,2      v84.11346318176003      a0,0 0 0 1 -0,0      h-40      a0,0 0 0 1 -0,-0      v-84.11346318176003      a2,2 0 0 1 2,-2      z" transform="translate(0,9.44386118761409)" fill="#e4ecec" opacity="1" style="cursor: default;"></path>
    <path d="M122,96.0538616250754      h36      a2,2 0 0 1 2,2      v64.17069362446824      a0,0 0 0 1 -0,0      h-40      a0,0 0 0 1 -0,-0      v-64.17069362446824      a2,2 0 0 1 2,-2      z" transform="translate(0,9.44386118761409)" fill="#e4ecec" opacity="1" style="cursor: default;"></path>
    <path d="M202,40.410368944250344      h36      a2,2 0 0 1 2,2      v119.8141863052933      a0,0 0 0 1 -0,0      h-40      a0,0 0 0 1 -0,-0      v-119.8141863052933      a2,2 0 0 1 2,-2      z" transform="translate(0,9.44386118761409)" fill="#e4ecec" opacity="1" style="cursor: default;"></path>
    <path d="M282,14.791643821863811      h36      a2,2 0 0 1 2,2      v145.43291142767984      a0,0 0 0 1 -0,0      h-40      a0,0 0 0 1 -0,-0      v-145.43291142767984      a2,2 0 0 1 2,-2      z" transform="translate(0,9.44386118761409)" fill="#e4ecec" opacity="1" style="cursor: default;"></path>
    <path d="M362,124.98685834374737      h36      a2,2 0 0 1 2,2      v35.23769690579627      a0,0 0 0 1 -0,0      h-40      a0,0 0 0 1 -0,-0      v-35.23769690579627      a2,2 0 0 1 2,-2      z" transform="translate(0,9.44386118761409)" fill="#e4ecec" opacity="1" style="cursor: default;"></path>
    <path d="M442,136.36581165678584      h36      a2,2 0 0 1 2,2      v23.858743592757804      a0,0 0 0 1 -0,0      h-40      a0,0 0 0 1 -0,-0      v-23.858743592757804      a2,2 0 0 1 2,-2      z" transform="translate(0,9.44386118761409)" fill="#e4ecec" opacity="1" style="cursor: default;"></path>
    <path d="M522,120.59227445975003      h36      a2,2 0 0 1 2,2      v39.63228078979361      a0,0 0 0 1 -0,0      h-40      a0,0 0 0 1 -0,-0      v-39.63228078979361      a2,2 0 0 1 2,-2      z" transform="translate(0,9.44386118761409)" fill="#e4ecec" opacity="1" style="cursor: default;"></path>
</svg>