<svg xmlns="http://www.w3.org/2000/svg" width="163" height="140" viewBox="0 0 163 140" fill="none">
    <path d="M80.7666 119.648C70.9695 119.648 61.3924 116.736 53.2465 111.281C45.1005 105.825 38.7515 98.0712 35.0023 88.9991C31.2531 79.9271 30.2721 69.9444 32.1835 60.3135C34.0948 50.6827 38.8125 41.8362 45.7401 34.8927C52.6677 27.9492 61.494 23.2207 71.1028 21.305C80.7116 19.3893 90.6715 20.3725 99.7228 24.1302C108.774 27.888 116.51 34.2516 121.953 42.4162C127.396 50.5809 130.302 60.1799 130.302 69.9995C130.287 83.1625 125.063 95.7822 115.777 105.09C106.49 114.398 93.8995 119.633 80.7666 119.648ZM80.7666 20.9664C71.0909 20.9664 61.6326 23.8421 53.5876 29.2299C45.5426 34.6178 39.2722 42.2757 35.5695 51.2353C31.8668 60.195 30.898 70.0539 32.7857 79.5654C34.6733 89.0768 39.3326 97.8137 46.1743 104.671C53.016 111.529 61.7329 116.198 71.2226 118.09C80.7123 119.982 90.5487 119.011 99.4878 115.3C108.427 111.589 116.067 105.304 121.443 97.2408C126.818 89.1774 129.688 79.6973 129.688 69.9995C129.673 56.9996 124.514 44.5363 115.343 35.344C106.171 26.1517 93.7367 20.981 80.7666 20.9664Z" fill="#FBAD41"></path>
    <path d="M80.7666 124.736C69.9656 124.736 59.4071 121.526 50.4264 115.512C41.4457 109.497 34.4461 100.949 30.3127 90.9468C26.1793 80.9451 25.0979 69.9395 27.205 59.3218C29.3122 48.704 34.5134 38.951 42.1509 31.296C49.7883 23.641 59.519 18.4279 70.1125 16.3159C80.706 14.2039 91.6864 15.2879 101.665 19.4307C111.644 23.5736 120.173 30.5892 126.174 39.5905C132.175 48.5918 135.377 59.1745 135.377 70.0002C135.361 84.5121 129.602 98.4249 119.364 108.686C109.126 118.948 95.2452 124.72 80.7666 124.736ZM80.7666 15.8796C70.087 15.8796 59.6473 19.0537 50.7675 25.0006C41.8878 30.9474 34.9669 39.3999 30.88 49.2892C26.7931 59.1784 25.7238 70.0603 27.8072 80.5587C29.8907 91.057 35.0334 100.7 42.585 108.269C50.1366 115.838 59.7579 120.993 70.2323 123.081C80.7067 125.169 91.5636 124.097 101.43 120.001C111.297 115.905 119.73 108.968 125.663 100.068C131.597 91.168 134.763 80.7043 134.763 70.0002C134.747 55.652 129.052 41.8963 118.929 31.7507C108.806 21.6052 95.082 15.8983 80.7666 15.8821V15.8796Z" fill="#FC9B3E"></path>
    <path d="M80.7666 129.824C68.9615 129.824 57.4215 126.315 47.606 119.741C37.7904 113.168 30.1402 103.824 25.6226 92.8929C21.105 81.9614 19.923 69.9327 22.2261 58.328C24.5292 46.7232 30.214 36.0635 38.5615 27.697C46.9089 19.3304 57.5443 13.6328 69.1225 11.3245C80.7008 9.01625 92.702 10.2011 103.608 14.7291C114.515 19.2571 123.837 26.9251 130.395 36.7632C136.954 46.6013 140.454 58.1678 140.454 69.9999C140.436 85.8607 134.142 101.067 122.952 112.282C111.762 123.497 96.5911 129.806 80.7666 129.824ZM80.7666 10.7911C69.083 10.7911 57.6618 14.2636 47.9472 20.7696C38.2326 27.2755 30.661 36.5227 26.1899 47.3417C21.7188 58.1607 20.5489 70.0656 22.8283 81.551C25.1076 93.0364 30.7338 103.586 38.9954 111.867C47.257 120.147 57.7828 125.786 69.2419 128.071C80.7011 130.356 92.5787 129.183 103.373 124.702C114.167 120.22 123.393 112.631 129.884 102.895C136.375 93.1578 139.84 81.7103 139.84 69.9999C139.822 54.3022 133.593 39.2525 122.518 28.1526C111.444 17.0526 96.4284 10.8089 80.7666 10.7911Z" fill="#FD893A"></path>
    <path d="M80.767 134.912C67.9581 134.912 55.4367 131.105 44.7865 123.973C34.1362 116.84 25.8353 106.702 20.9335 94.8411C16.0318 82.98 14.7492 69.9284 17.2481 57.3368C19.747 44.7451 25.9151 33.179 34.9725 24.1009C44.0298 15.0228 55.5695 8.84055 68.1323 6.33591C80.6952 3.83128 93.7169 5.11675 105.551 10.0298C117.385 14.9428 127.499 23.2627 134.616 33.9374C141.732 44.6121 145.53 57.1621 145.53 70.0005C145.511 87.21 138.681 103.709 126.54 115.878C114.399 128.047 97.9373 134.892 80.767 134.912ZM80.767 5.70406C68.0795 5.70406 55.6769 9.47498 45.1276 16.54C34.5783 23.6049 26.3561 33.6467 21.5008 45.3953C16.6455 57.1439 15.3751 70.0718 17.8503 82.5441C20.3255 95.0163 26.4352 106.473 35.4066 115.465C44.3781 124.457 55.8084 130.581 68.2521 133.061C80.6959 135.542 93.5942 134.269 105.316 129.403C117.038 124.536 127.056 116.295 134.105 105.722C141.154 95.1481 144.916 82.7171 144.916 70.0005C144.897 52.9541 138.132 36.6116 126.106 24.558C114.08 12.5044 97.7744 5.72393 80.767 5.70406Z" fill="#FE7837"></path>
    <path d="M80.7666 140C66.9535 140 53.4507 135.895 41.9655 128.203C30.4803 120.512 21.5286 109.579 16.2425 96.7883C10.9564 83.9975 9.57326 69.9228 12.268 56.3441C14.9627 42.7654 21.6143 30.2925 31.3815 20.5028C41.1488 10.713 53.593 4.04612 67.1407 1.34511C80.6883 -1.35591 94.7308 0.0302892 107.492 5.3284C120.254 10.6265 131.162 19.5986 138.836 31.11C146.51 42.6215 150.606 56.1553 150.606 70C150.585 88.5587 143.22 106.351 130.127 119.474C117.035 132.597 99.2828 139.979 80.7666 140ZM80.7666 0.615437C67.075 0.615316 53.6908 4.68455 42.3066 12.3085C30.9224 19.9326 22.0494 30.7689 16.8098 43.4473C11.5701 56.1256 10.1992 70.0766 12.8702 83.5359C15.5412 96.9952 22.1343 109.358 31.8157 119.062C41.4971 128.766 53.8319 135.374 67.2604 138.051C80.689 140.729 94.608 139.355 107.257 134.103C119.907 128.852 130.718 119.958 138.325 108.548C145.932 97.1378 149.992 83.723 149.992 70C149.971 51.6045 142.671 33.9684 129.693 20.9608C116.716 7.95314 99.12 0.636287 80.7666 0.615437Z" fill="#FF6633"></path>
    <path d="M19.8665 93.0462C30.1018 93.0462 38.3991 84.7659 38.3991 74.5517C38.3991 64.3375 30.1018 56.0573 19.8665 56.0573C9.63115 56.0573 1.3338 64.3375 1.3338 74.5517C1.3338 84.7659 9.63115 93.0462 19.8665 93.0462Z" fill="white" stroke="#3E74FF" stroke-width="0.766456" stroke-miterlimit="10"></path>
    <path d="M31.9591 88.5611C28.4032 86.6767 24.464 86.1698 23.7301 84.4506C23.1743 83.1478 23.7301 78.7868 23.7301 78.7868L15.1365 78.6971C15.1365 78.6971 15.6796 83.119 15.1365 84.4506C14.4781 86.0656 10.8982 86.5861 7.612 88.4211" fill="#E0ECFF"></path>
    <path d="M31.9591 88.5611C28.4032 86.6767 24.464 86.1698 23.7301 84.4506C23.1743 83.1478 23.7301 78.7868 23.7301 78.7868L15.1365 78.6971C15.1365 78.6971 15.6796 83.119 15.1365 84.4506C14.4781 86.0656 10.8982 86.5861 7.612 88.4211" stroke="#0F006B" stroke-width="0.766456" stroke-miterlimit="10"></path>
    <path d="M19.8663 93.0458C24.3064 93.0512 28.5997 91.4588 31.9585 88.5607C28.4029 86.6767 24.4638 86.1691 23.7295 84.4497C23.601 84.088 23.5281 83.709 23.5133 83.3256C22.1677 83.5964 20.7999 83.7427 19.4273 83.7627C18.0557 83.7429 16.689 83.5966 15.3444 83.3256C15.3292 83.7084 15.2587 84.087 15.1349 84.4497C14.4766 86.0649 10.897 86.5861 7.61076 88.4211C10.9917 91.4065 15.3518 93.0518 19.8663 93.0458Z" fill="#3E74FF"></path>
    <path fill-rule="evenodd" clip-rule="evenodd" d="M14.775 82.6035L15.4629 82.7422C16.7684 83.0054 18.0956 83.1477 19.4273 83.1674C20.7602 83.1475 22.0885 83.0052 23.3952 82.7421L24.0837 82.6036L24.1107 83.304C24.1229 83.6206 24.1821 83.9336 24.2863 84.2327C24.402 84.4905 24.6613 84.7577 25.1345 85.0434C25.6131 85.3324 26.2421 85.6001 26.9986 85.8873C27.3213 86.0098 27.6656 86.135 28.0256 86.2659C29.3186 86.7363 30.814 87.2802 32.2389 88.0352L33.0097 88.4437L32.3495 89.0133C28.8821 92.0051 24.4501 93.2427 19.8664 93.2374C15.206 93.2434 10.9407 91.6192 7.45041 88.5373L6.89435 88.2431L7.31895 87.9019C8.6421 87.163 10.022 86.6268 11.207 86.1663C11.5323 86.0399 11.843 85.9191 12.1338 85.8015C12.8238 85.5223 13.3923 85.2652 13.8227 84.9917C14.2472 84.722 14.4747 84.475 14.5752 84.2408C14.6766 83.938 14.7345 83.6223 14.7472 83.3033L14.775 82.6035ZM19.8667 92.7488C23.8602 92.7537 28.0174 91.453 31.1532 89.0133C30.0686 88.5044 28.6878 87.7775 27.6612 87.4038C27.2884 87.2681 26.9247 87.1357 26.5736 87.0024C25.809 86.7122 25.0933 86.4129 24.5157 86.0642C23.9423 85.718 23.4346 85.282 23.1796 84.6849L23.1724 84.6678L23.1662 84.6504C23.0942 84.4478 23.0373 84.2406 22.9958 84.0303C21.82 84.2327 20.6298 84.3432 19.4361 84.3605L19.4274 84.3606L19.4187 84.3605C18.2265 84.3433 17.0377 84.233 15.8634 84.0307C15.8235 84.2381 15.7692 84.4428 15.7009 84.6433L15.6953 84.6597L15.6887 84.6757C15.4567 85.2449 14.9905 85.6641 14.4648 85.9981C13.9362 86.334 13.281 86.6247 12.583 86.9071C12.2648 87.0358 11.9353 87.164 11.5976 87.2953C10.6642 87.6584 9.6679 88.0459 8.67516 88.5373C11.8429 91.07 15.7903 92.7543 19.8667 92.7488Z" fill="#0F006B"></path>
    <path d="M12.9493 71.1365C12.881 70.5831 12.059 69.5888 11.0886 70.2265C10.1391 70.8494 11.0513 75.5078 13.6991 75.3347" fill="#E0ECFF"></path>
    <path d="M12.9493 71.1365C12.881 70.5831 12.059 69.5888 11.0886 70.2265C10.1391 70.8494 11.0513 75.5078 13.6991 75.3347" stroke="#0F006B" stroke-width="0.766456" stroke-miterlimit="10"></path>
    <path d="M25.949 71.1365C26.0173 70.5831 26.839 69.5888 27.8097 70.2265C28.7592 70.8494 27.8467 75.5078 25.1989 75.3347" fill="#E0ECFF"></path>
    <path d="M25.949 71.1365C26.0173 70.5831 26.839 69.5888 27.8097 70.2265C28.7592 70.8494 27.8467 75.5078 25.1989 75.3347" stroke="#0F006B" stroke-width="0.766456" stroke-miterlimit="10"></path>
    <path d="M26.116 67.8955C26.1687 69.7205 25.9603 71.5436 25.4969 73.3098C25.2437 74.203 24.9453 76.942 24.6019 77.6521C23.7378 79.4407 21.5115 81.4318 19.4878 81.4318C17.4641 81.4318 15.4683 79.442 14.3738 77.6524C13.9557 76.9683 13.6237 74.2245 13.3636 73.3117C12.7622 71.1987 12.8603 69.2635 12.8603 67.8955C12.8603 63.7459 15.6512 60.9835 19.4847 60.9835C23.3181 60.9835 26.116 63.7459 26.116 67.8955Z" fill="#E0ECFF" stroke="#0F006B" stroke-width="0.766456" stroke-miterlimit="10"></path>
    <path d="M24.9484 67.0172C24.9484 67.0172 18.0987 67.6606 14.973 65.4127C14.973 65.4127 14.0612 69.2433 12.9506 71.1359C12.9506 71.1359 11.5804 65.3243 13.5756 64.5542C13.5756 64.5542 13.4101 61.3297 16.9726 60.5041C16.9726 60.5041 16.7891 61.3076 17.3866 61.2843C17.9842 61.2609 22.7291 58.5313 26.1157 60.6646C29.5022 62.7978 26.9028 65.9171 26.9028 65.9171C26.9028 65.9171 26.9946 69.213 26.1787 70.6043L25.8824 71.5484C25.8824 71.5484 25.0257 68.5649 24.9484 67.0172Z" fill="#0F006B" stroke="#0F006B" stroke-width="0.766456" stroke-linejoin="round"></path>
    <path d="M19.98 93.0912C30.2153 93.0912 38.5127 84.811 38.5127 74.5968C38.5127 64.3825 30.2153 56.1023 19.98 56.1023C9.74472 56.1023 1.44737 64.3825 1.44737 74.5968C1.44737 84.811 9.74472 93.0912 19.98 93.0912Z" stroke="#3E74FF" stroke-width="0.766456" stroke-miterlimit="10"></path>
    <path d="M81.025 100.138C96.399 100.138 108.862 87.773 108.862 72.5206C108.862 57.2681 96.399 44.9036 81.025 44.9036C65.651 44.9036 53.1879 57.2681 53.1879 72.5206C53.1879 87.773 65.651 100.138 81.025 100.138Z" fill="white"></path>
    <path d="M72.2406 86.9081C73.69 86.1173 75.0329 85.148 76.2373 84.0231V76.7339L85.915 76.8476V83.7033C86.3566 84.5551 88.0253 85.6017 90.2511 86.8416C90.2511 86.8416 86.1099 92.9697 80.9081 92.9697C75.7062 92.9697 72.2406 86.9081 72.2406 86.9081Z" fill="#E0ECFF" stroke="#0F006B" stroke-width="1.28894" stroke-miterlimit="10"></path>
    <path d="M81.026 100.138C87.936 100.148 94.6007 97.5978 99.715 92.9877C96.8589 90.5579 93.6957 88.5078 90.3054 86.8894C90.3054 86.8894 86.1114 92.9693 80.9096 92.9693C75.7077 92.9693 72.2145 86.9672 72.2145 86.9672C69.0217 88.7529 65.1049 90.4343 62.1693 92.8316C67.3023 97.5375 74.037 100.147 81.026 100.138Z" fill="#3E74FF"></path>
    <path fill-rule="evenodd" clip-rule="evenodd" d="M72.0306 87.6812C71.261 88.1013 70.4439 88.524 69.6194 88.9506C68.8601 89.3434 68.0945 89.7395 67.3536 90.1399C65.8129 90.9725 63.8062 92.2214 62.4911 93.2246C67.4621 97.5747 74.2668 100.332 80.9098 100.324C87.4798 100.333 94.513 97.6477 99.464 93.3838C96.8833 91.2517 93.486 89.0427 90.4748 87.5665C90.3506 87.7292 90.1861 87.9382 89.9848 88.1801C89.4982 88.7646 88.7933 89.5449 87.9195 90.3267C86.1901 91.8741 83.714 93.5044 80.9098 93.5044C78.0978 93.5044 75.7939 91.8866 74.2317 90.348C73.4437 89.572 72.8256 88.7977 72.4044 88.2179C72.2551 88.0124 72.1301 87.8307 72.0306 87.6812ZM90.0745 87.1495L90.3056 86.8895H89.7664C89.8597 87.015 89.9665 87.0971 90.0745 87.1495ZM90.4492 86.5933L90.5394 86.4075C93.972 88.046 97.1746 90.1216 100.066 92.5818L100.53 92.9762L100.078 93.3838C94.8643 98.0833 88.0703 100.683 81.0262 100.673C73.9015 100.682 67.0362 98.0218 61.8035 93.2246L61.3496 92.8084L61.8268 92.4187C63.3343 91.1876 65.0829 90.1487 66.8377 89.2004C67.6242 88.7753 68.3978 88.3754 69.1545 87.9843C70.1165 87.4871 71.0511 87.004 71.9499 86.5013L72.4148 86.2413L72.6815 86.6995L72.6828 86.7018L72.689 86.7123C72.6948 86.722 72.7039 86.7372 72.7163 86.7575C72.7411 86.798 72.7789 86.8589 72.8294 86.9372C72.9303 87.094 73.0814 87.3201 73.2792 87.5924C73.6756 88.138 74.2558 88.8643 74.9914 89.5888C76.4763 91.0512 78.5199 92.4345 80.9098 92.4345C83.3074 92.4345 85.5292 91.0248 87.1972 89.5322C88.0222 88.7941 88.6908 88.0544 89.1532 87.4989C89.3841 87.2215 89.5627 86.9911 89.6828 86.8312C89.7429 86.7512 89.7882 86.689 89.8181 86.6473C89.8331 86.6265 89.8442 86.6109 89.8513 86.6008L89.859 86.5898L89.8605 86.5875C89.8683 86.5849 90.1512 86.4898 90.4492 86.5933Z" fill="#0F006B"></path>
    <path d="M89.0175 52.6792C89.0175 53.0209 87.998 53.2854 87.9515 53.6136C87.9049 53.9418 88.8071 54.4906 88.7131 54.8108C88.6192 55.1309 87.5657 55.1022 87.427 55.4062C87.2882 55.7102 87.9998 56.4877 87.819 56.7693C87.6382 57.0508 86.6375 56.7226 86.4183 56.9764C86.199 57.2302 86.6653 58.1754 86.412 58.3951C86.1587 58.6148 85.2914 58.0184 85.0086 58.2005C84.7257 58.3825 84.9119 59.4201 84.6049 59.5608C84.2979 59.7016 83.6382 58.8811 83.3142 58.9771C82.9902 59.073 82.8783 60.1186 82.5427 60.1662C82.2071 60.2137 81.8088 59.2407 81.4687 59.2407C81.1285 59.2407 80.7222 60.2137 80.3946 60.1662C80.067 60.1186 79.9417 59.0703 79.6231 58.9771C79.3044 58.8838 78.6385 59.6989 78.3315 59.56C78.0245 59.421 78.2089 58.3816 77.9278 58.2005C77.6468 58.0193 76.7777 58.6148 76.5244 58.3951C76.2711 58.1754 76.7383 57.2293 76.519 56.9755C76.2998 56.7217 75.3 57.0517 75.1174 56.7684C74.9348 56.485 75.65 55.7129 75.5094 55.4053C75.3689 55.0977 74.319 55.1363 74.2241 54.8108C74.1293 54.4852 75.0297 53.9508 74.9858 53.6136C74.942 53.2764 73.9198 53.02 73.9198 52.6792C73.9198 52.3384 74.9384 52.073 74.9858 51.7439C75.0333 51.4148 74.1302 50.8669 74.2241 50.5476C74.3181 50.2284 75.3707 50.2562 75.5103 49.9522C75.65 49.6482 74.9366 48.8698 75.1183 48.5882C75.3 48.3066 76.2998 48.6348 76.519 48.382C76.7383 48.1291 76.272 47.183 76.5253 46.9624C76.7786 46.7418 77.6459 47.3399 77.9278 47.1579C78.2098 46.9759 78.0254 45.9383 78.3324 45.7975C78.6394 45.6567 79.2982 46.4764 79.6231 46.3813C79.948 46.2863 80.059 45.2397 80.3946 45.1913C80.7302 45.1429 81.1285 46.1168 81.4687 46.1168C81.8088 46.1168 82.2151 45.1447 82.5427 45.1913C82.8703 45.238 82.9956 46.2872 83.3142 46.3813C83.6329 46.4755 84.2988 45.6585 84.6058 45.7975C84.9128 45.9365 84.7284 46.9768 85.0095 47.1579C85.2905 47.339 86.1596 46.7436 86.412 46.9633C86.6644 47.183 86.1981 48.1291 86.4183 48.382C86.6384 48.6348 87.6373 48.3057 87.8199 48.5891C88.0025 48.8725 87.2873 49.6455 87.4279 49.9531C87.5684 50.2607 88.6183 50.2221 88.7131 50.5476C88.808 50.8731 87.9076 51.4076 87.9515 51.7439C87.9953 52.0802 89.0175 52.3375 89.0175 52.6792Z" fill="#0F006B" stroke="#0F006B" stroke-width="1.28894"></path>
    <path d="M90.9763 69.1584C91.0291 68.9419 91.1247 68.7393 91.257 68.5634C91.3892 68.3875 91.5552 68.2422 91.7444 68.1368C91.9336 68.0314 92.1418 67.9681 92.3558 67.9511C92.5697 67.9341 92.7848 67.9636 92.9872 68.0378C94.2034 68.4198 93.519 73.0158 90.1199 72.8527C90.4724 71.6391 90.7583 70.4057 90.9763 69.1584Z" fill="#E0ECFF" stroke="#0F006B" stroke-width="1.28894" stroke-miterlimit="10"></path>
    <path d="M71.0364 69.1644C70.9774 68.9439 70.8742 68.7384 70.7332 68.5606C70.5923 68.3829 70.4168 68.2369 70.2177 68.1317C70.0186 68.0266 69.8002 67.9647 69.5765 67.9499C69.3527 67.9351 69.1283 67.9677 68.9176 68.0457C67.8362 68.4926 68.3752 73.0155 71.8439 72.8526C71.4969 71.6422 71.2272 70.4103 71.0364 69.1644Z" fill="#E0ECFF" stroke="#0F006B" stroke-width="1.28894" stroke-miterlimit="10"></path>
    <path d="M91.262 64.8328C91.262 67.4685 90.2801 72.8387 88.5561 76.0803C87.2765 78.4867 83.9794 81.1658 80.9819 81.1658C77.9845 81.1658 75.0266 78.4867 73.4078 76.0808C71.3551 73.0295 70.7019 67.4685 70.7019 64.8328C70.7019 62.1519 71.7849 59.5809 73.7128 57.6852C75.6407 55.7896 78.2555 54.7246 80.9819 54.7246C83.7084 54.7246 86.3231 55.7896 88.251 57.6852C90.1789 59.5809 91.262 62.1519 91.262 64.8328Z" fill="#E0ECFF" stroke="#0F006B" stroke-width="1.28894" stroke-miterlimit="10"></path>
    <path d="M90.9351 68.2369C90.4534 64.1122 81.5635 64.7282 79.8526 60.1117C79.8526 60.1117 79.8526 63.018 77.5713 64.7282C75.8205 66.0408 73.5791 65.2872 73.5791 65.2872C73.5791 65.2872 75.8218 65.4672 77.001 63.562C78.0882 61.8056 77.5713 60.1117 77.5713 60.1117C73.6754 60.701 71.7014 64.1383 71.2426 69.0786L71.0666 68.9011C70.8404 67.4615 70.7185 66.0072 70.7019 64.5497C70.7019 58.817 75.4869 54.3471 81.1723 54.3471C83.9211 54.3403 86.5617 55.4263 88.5217 57.3696C90.4817 59.3129 91.6031 61.9568 91.6427 64.7282C91.5884 66.1529 91.3945 67.5687 91.0638 68.955L90.9351 68.2369Z" fill="#0F006B" stroke="#0F006B" stroke-width="1.28894" stroke-linejoin="round"></path>
    <path d="M80.9292 100.424C96.3032 100.424 108.766 88.059 108.766 72.8066C108.766 57.5541 96.3032 45.1896 80.9292 45.1896C65.5552 45.1896 53.0921 57.5541 53.0921 72.8066C53.0921 88.059 65.5552 100.424 80.9292 100.424Z" stroke="#3E74FF" stroke-width="1.28894" stroke-miterlimit="10"></path>
    <path d="M143.41 93.2377C153.677 93.2377 162 84.9147 162 74.6477C162 64.3808 153.677 56.0577 143.41 56.0577C133.143 56.0577 124.82 64.3808 124.82 74.6477C124.82 84.9147 133.143 93.2377 143.41 93.2377Z" fill="white"></path>
    <path d="M153.174 80.5379C153.174 77.2828 154.853 77.7484 154.853 74.959C154.853 72.4363 152.614 72.7917 152.614 68.8221C152.614 63.8011 148.982 59.3379 144.218 59.3379C136.659 59.3379 134.635 66.7238 134.635 68.903C134.635 71.5426 135.754 73.2905 135.754 76.167C135.754 79.0435 132.475 80.065 132.475 82.7046C132.475 88.5218 137.571 93.2374 143.407 93.2374C149.243 93.2374 156.533 90.0221 156.533 87.7905C156.533 82.3606 153.174 83.793 153.174 80.5379Z" fill="#0F006B"></path>
    <path d="M137.544 84.3317C138.512 83.7994 139.409 83.1469 140.213 82.3897V77.483L146.676 77.5595V82.1744C146.971 82.7478 148.085 83.4523 149.572 84.2869C149.572 84.2869 146.806 88.4119 143.332 88.4119C139.858 88.4119 137.544 84.3317 137.544 84.3317Z" fill="#E0ECFF" stroke="#0F006B" stroke-width="1.27743" stroke-miterlimit="10"></path>
    <path d="M143.411 93.2374C148.026 93.2438 152.477 91.5273 155.892 88.4241C153.985 86.7885 151.872 85.4085 149.608 84.3191C149.608 84.3191 146.807 88.4117 143.333 88.4117C139.86 88.4117 137.527 84.3715 137.527 84.3715C135.395 85.5735 132.779 86.7053 130.818 88.319C134.246 91.4867 138.744 93.2433 143.411 93.2374Z" fill="#3E74FF" stroke="#0F006B" stroke-width="1.27743" stroke-miterlimit="10"></path>
    <path d="M149.574 71.2818C149.609 71.1436 149.672 71.0143 149.76 70.902C149.848 70.7897 149.958 70.697 150.084 70.6297C150.21 70.5624 150.348 70.522 150.49 70.5112C150.632 70.5003 150.775 70.5191 150.91 70.5665C151.718 70.8104 151.263 73.7442 149.005 73.64C149.239 72.8654 149.429 72.078 149.574 71.2818Z" fill="#E0ECFF" stroke="#0F006B" stroke-width="1.27743" stroke-miterlimit="10"></path>
    <path d="M137.245 71.2833C137.206 71.1423 137.139 71.0109 137.047 70.8972C136.955 70.7836 136.841 70.6902 136.711 70.623C136.582 70.5558 136.439 70.5162 136.294 70.5067C136.148 70.4973 136.002 70.5181 135.864 70.568C135.16 70.8537 135.511 73.7456 137.771 73.6415C137.545 72.8676 137.369 72.0799 137.245 71.2833Z" fill="#E0ECFF" stroke="#0F006B" stroke-width="1.27743" stroke-miterlimit="10"></path>
    <path d="M149.867 68.5882C149.867 70.2636 149.253 73.6771 148.176 75.7375C147.376 77.2671 145.315 78.9701 143.442 78.9701C141.568 78.9701 139.719 77.2671 138.708 75.7379C137.425 73.7984 137.016 70.2636 137.016 68.5882C137.016 66.8842 137.693 65.2499 138.898 64.045C140.103 62.84 141.738 62.1631 143.442 62.1631C145.146 62.1631 146.78 62.84 147.985 64.045C149.19 65.2499 149.867 66.8842 149.867 68.5882Z" fill="#E0ECFF" stroke="#0F006B" stroke-width="1.27743" stroke-miterlimit="10"></path>
    <path d="M149.944 68.5727C149.659 66.135 143.281 66.5675 142.268 63.8391C142.268 63.8391 141.85 65.1485 140.917 66.5581C139.566 68.5973 137.544 68.3304 137.544 68.3304C137.411 67.4796 136.859 67.3234 136.849 66.462C136.849 63.0739 139.682 60.4321 143.049 60.4321C144.677 60.4281 146.24 61.07 147.401 62.2185C148.562 63.367 149.226 64.9296 149.249 66.5675C149.217 67.4096 150.14 68.2464 149.944 69.0656V68.5727Z" fill="#0F006B"></path>
    <path d="M145.61 69.0768C144.379 68.5623 145.353 65.8409 144.078 64.8992C144.078 64.8992 144.824 64.8748 145.7 64.5929C146.966 64.1852 147.566 62.9316 147.566 62.9316C147.566 62.9316 145.451 62.9691 144.759 63.1692C144.12 63.3536 144.279 64.1869 144.279 64.1869C145.013 63.6268 146.04 62.7094 147.606 63.0022L147.566 62.9316C147.142 62.7339 146.704 62.5675 146.255 62.4337C144.485 61.9277 142.683 63.0272 142.182 64.8024C141.938 65.6601 142.04 66.5805 142.468 67.364C142.895 68.1475 143.612 68.7311 144.464 68.988C144.909 69.0969 145.363 69.1613 145.82 69.1804L145.61 69.0768Z" fill="#0F006B"></path>
    <path d="M147.566 62.9316L147.606 63.0022C146.04 62.7094 145.013 63.6268 144.279 64.1869C144.279 64.1869 144.12 63.3536 144.759 63.1692C145.451 62.9691 147.566 62.9316 147.566 62.9316ZM147.566 62.9316C147.142 62.7339 146.704 62.5675 146.255 62.4337C144.485 61.9277 142.683 63.0272 142.182 64.8024C141.938 65.6601 142.04 66.5805 142.468 67.364C142.895 68.1475 143.612 68.7311 144.464 68.988C144.909 69.0969 145.363 69.1613 145.82 69.1804L145.61 69.0768C144.379 68.5623 145.353 65.8409 144.078 64.8992C144.078 64.8992 144.824 64.8748 145.7 64.5929C146.966 64.1852 147.566 62.9316 147.566 62.9316ZM149.944 68.5727C149.659 66.135 143.281 66.5675 142.268 63.8391C142.268 63.8391 141.85 65.1485 140.917 66.5581C139.566 68.5973 137.544 68.3304 137.544 68.3304C137.411 67.4796 136.859 67.3234 136.849 66.462C136.849 63.0739 139.682 60.4321 143.049 60.4321C144.677 60.4281 146.24 61.07 147.401 62.2185C148.562 63.367 149.226 64.9296 149.249 66.5675C149.217 67.4096 150.14 68.2464 149.944 69.0656V68.5727Z" stroke="#0F006B" stroke-width="0.6451" stroke-linejoin="round"></path>
    <path d="M143.41 93.2377C153.677 93.2377 162 84.9147 162 74.6477C162 64.3808 153.677 56.0577 143.41 56.0577C133.143 56.0577 124.82 64.3808 124.82 74.6477C124.82 84.9147 133.143 93.2377 143.41 93.2377Z" stroke="#3E74FF" stroke-width="1.27743" stroke-miterlimit="10"></path>
</svg>