<svg width="399" height="144" viewBox="0 0 399 144" fill="none" xmlns="http://www.w3.org/2000/svg">
<mask id="mask0_361_147" style="mask-type:luminance" maskUnits="userSpaceOnUse" x="0" y="0" width="399" height="144">
<path d="M398.345 0L0.000164367 -1.92025e-05L0.000141537 144L398.345 144L398.345 0Z" fill="white"/>
</mask>
<g mask="url(#mask0_361_147)">
<mask id="mask1_361_147" style="mask-type:luminance" maskUnits="userSpaceOnUse" x="386" y="74" width="13" height="1">
<path d="M398.361 74.8389H387.359C386.831 74.8389 386.402 74.6511 386.402 74.4193C386.402 74.1875 386.831 73.9997 387.359 73.9997H398.361V74.8389Z" fill="white"/>
</mask>
<g mask="url(#mask1_361_147)">
<path d="M387.094 74.8398V74.8231H386.979V74.8063H386.903V74.7895H386.826V74.7727H386.788V74.7559H386.712V74.7391H386.673V74.7224H386.635V74.7056H386.597V74.672H386.559V74.6552H386.52V74.6217H386.482V74.5881H386.444V74.5377H386.405V74.4538H386.367V74.3699H386.405V74.3028H386.444V74.2356H386.482V74.2189H386.52V74.1853H386.559V74.1517H386.597V74.1349H386.635V74.1182H386.673V74.1014H386.712V74.0846H386.75V74.0678H386.826V74.051H386.903V74.0342H386.979V74.0175H387.094V74.0007H387.286V73.9839H398.345V74.8398" fill="white"/>
</g>
</g>
<mask id="mask2_361_147" style="mask-type:luminance" maskUnits="userSpaceOnUse" x="0" y="73" width="22" height="3">
<path d="M20.0817 75.4033H0.000976562V73.8814H20.0817C20.6101 73.8814 21.0385 74.222 21.0385 74.6424C21.0385 75.0627 20.6101 75.4033 20.0817 75.4033Z" fill="white"/>
</mask>
<g mask="url(#mask2_361_147)">
<path d="M20.0817 75.4033H0.000976562V73.8814H20.0817C20.6101 73.8814 21.0385 74.222 21.0385 74.6424C21.0385 75.0627 20.6101 75.4033 20.0817 75.4033Z" fill="white"/>
</g>
<mask id="mask3_361_147" style="mask-type:luminance" maskUnits="userSpaceOnUse" x="198" y="15" width="3" height="128">
<path d="M199.18 142.161C198.651 142.161 198.223 141.821 198.223 141.4V16.5052C198.223 16.0848 198.651 15.7442 199.18 15.7442C199.708 15.7442 200.137 16.0848 200.137 16.5052V141.4C200.137 141.821 199.708 142.161 199.18 142.161Z" fill="white"/>
</mask>
<g mask="url(#mask3_361_147)">
<path d="M199.18 142.161C198.651 142.161 198.223 141.821 198.223 141.4V16.5052C198.223 16.0848 198.651 15.7442 199.18 15.7442C199.708 15.7442 200.137 16.0848 200.137 16.5052V141.4C200.137 141.821 199.708 142.161 199.18 142.161Z" fill="white"/>
</g>
<mask id="mask4_361_147" style="mask-type:luminance" maskUnits="userSpaceOnUse" x="202" y="22" width="3" height="122">
<path d="M203.776 143.11C203.247 143.11 202.819 142.769 202.819 142.349V23.1349C202.819 22.7146 203.247 22.374 203.776 22.374C204.304 22.374 204.732 22.7146 204.732 23.1349V142.349C204.732 142.769 204.304 143.11 203.776 143.11Z" fill="white"/>
</mask>
<g mask="url(#mask4_361_147)">
<path d="M203.776 143.11C203.247 143.11 202.819 142.769 202.819 142.349V23.1349C202.819 22.7146 203.247 22.374 203.776 22.374C204.304 22.374 204.732 22.7146 204.732 23.1349V142.349C204.732 142.769 204.304 143.11 203.776 143.11Z" fill="white"/>
</g>
<mask id="mask5_361_147" style="mask-type:luminance" maskUnits="userSpaceOnUse" x="207" y="29" width="3" height="115">
<path d="M208.366 143.517C207.837 143.517 207.409 143.176 207.409 142.756V30.2262C207.409 29.8062 207.837 29.4653 208.366 29.4653C208.894 29.4653 209.323 29.8062 209.323 30.2262V142.756C209.323 143.176 208.894 143.517 208.366 143.517Z" fill="white"/>
</mask>
<g mask="url(#mask5_361_147)">
<path d="M208.366 143.517C207.837 143.517 207.409 143.176 207.409 142.756V30.2262C207.409 29.8062 207.837 29.4653 208.366 29.4653C208.894 29.4653 209.323 29.8062 209.323 30.2262V142.756C209.323 143.176 208.894 143.517 208.366 143.517Z" fill="white"/>
</g>
<mask id="mask6_361_147" style="mask-type:luminance" maskUnits="userSpaceOnUse" x="212" y="36" width="2" height="108">
<path d="M212.961 143.478C212.432 143.478 212.004 143.137 212.004 142.717V37.0295C212.004 36.6095 212.432 36.2686 212.961 36.2686C213.489 36.2686 213.917 36.6095 213.917 37.0295V142.717C213.917 143.137 213.489 143.478 212.961 143.478Z" fill="white"/>
</mask>
<g mask="url(#mask6_361_147)">
<path d="M212.961 143.478C212.432 143.478 212.004 143.137 212.004 142.717V37.0295C212.004 36.6095 212.432 36.2686 212.961 36.2686C213.489 36.2686 213.917 36.6095 213.917 37.0295V142.717C213.917 143.137 213.489 143.478 212.961 143.478Z" fill="white"/>
</g>
<mask id="mask7_361_147" style="mask-type:luminance" maskUnits="userSpaceOnUse" x="216" y="42" width="3" height="101">
<path d="M217.55 142.997C217.021 142.997 216.593 142.656 216.593 142.236V42.8795C216.593 42.4595 217.021 42.1186 217.55 42.1186C218.078 42.1186 218.507 42.4595 218.507 42.8795V142.236C218.507 142.656 218.078 142.997 217.55 142.997Z" fill="white"/>
</mask>
<g mask="url(#mask7_361_147)">
<path d="M217.55 142.997C217.021 142.997 216.593 142.656 216.593 142.236V42.8795C216.593 42.4595 217.021 42.1186 217.55 42.1186C218.078 42.1186 218.507 42.4595 218.507 42.8795V142.236C218.507 142.656 218.078 142.997 217.55 142.997Z" fill="white"/>
</g>
<mask id="mask8_361_147" style="mask-type:luminance" maskUnits="userSpaceOnUse" x="221" y="46" width="3" height="96">
<path d="M222.145 141.962C221.617 141.962 221.188 141.621 221.188 141.201V47.3907C221.188 46.9703 221.617 46.6297 222.145 46.6297C222.674 46.6297 223.102 46.9703 223.102 47.3907V141.201C223.102 141.621 222.674 141.962 222.145 141.962Z" fill="white"/>
</mask>
<g mask="url(#mask8_361_147)">
<path d="M222.145 141.962C221.617 141.962 221.188 141.621 221.188 141.201V47.3907C221.188 46.9703 221.617 46.6297 222.145 46.6297C222.674 46.6297 223.102 46.9703 223.102 47.3907V141.201C223.102 141.621 222.674 141.962 222.145 141.962Z" fill="white"/>
</g>
<mask id="mask9_361_147" style="mask-type:luminance" maskUnits="userSpaceOnUse" x="225" y="49" width="3" height="92">
<path d="M226.735 140.255C226.207 140.255 225.778 139.914 225.778 139.494V50.5001C225.778 50.0798 226.207 49.7392 226.735 49.7392C227.264 49.7392 227.692 50.0798 227.692 50.5001V139.494C227.692 139.914 227.264 140.255 226.735 140.255Z" fill="white"/>
</mask>
<g mask="url(#mask9_361_147)">
<path d="M226.735 140.255C226.207 140.255 225.778 139.914 225.778 139.494V50.5001C225.778 50.0798 226.207 49.7392 226.735 49.7392C227.264 49.7392 227.692 50.0798 227.692 50.5001V139.494C227.692 139.914 227.264 140.255 226.735 140.255Z" fill="white"/>
</g>
<mask id="mask10_361_147" style="mask-type:luminance" maskUnits="userSpaceOnUse" x="230" y="51" width="3" height="87">
<path d="M231.328 137.688C230.8 137.688 230.372 137.348 230.372 136.928V52.2704C230.372 51.8501 230.8 51.5095 231.328 51.5095C231.857 51.5095 232.285 51.8501 232.285 52.2704V136.928C232.285 137.348 231.857 137.688 231.328 137.688Z" fill="white"/>
</mask>
<g mask="url(#mask10_361_147)">
<path d="M231.328 137.688C230.8 137.688 230.372 137.348 230.372 136.928V52.2704C230.372 51.8501 230.8 51.5095 231.328 51.5095C231.857 51.5095 232.285 51.8501 232.285 52.2704V136.928C232.285 137.348 231.857 137.688 231.328 137.688Z" fill="white"/>
</g>
<mask id="mask11_361_147" style="mask-type:luminance" maskUnits="userSpaceOnUse" x="234" y="52" width="3" height="83">
<path d="M235.924 134.079C235.395 134.079 234.967 133.739 234.967 133.318V52.8694C234.967 52.449 235.395 52.1084 235.924 52.1084C236.452 52.1084 236.88 52.449 236.88 52.8694V133.318C236.88 133.739 236.452 134.079 235.924 134.079Z" fill="white"/>
</mask>
<g mask="url(#mask11_361_147)">
<path d="M235.924 134.079C235.395 134.079 234.967 133.739 234.967 133.318V52.8694C234.967 52.449 235.395 52.1084 235.924 52.1084C236.452 52.1084 236.88 52.449 236.88 52.8694V133.318C236.88 133.739 236.452 134.079 235.924 134.079Z" fill="white"/>
</g>
<mask id="mask12_361_147" style="mask-type:luminance" maskUnits="userSpaceOnUse" x="239" y="51" width="3" height="79">
<path d="M240.515 129.267C239.986 129.267 239.558 128.926 239.558 128.506V52.41C239.558 51.9897 239.986 51.6491 240.515 51.6491C241.043 51.6491 241.472 51.9897 241.472 52.41V128.506C241.472 128.926 241.043 129.267 240.515 129.267Z" fill="white"/>
</mask>
<g mask="url(#mask12_361_147)">
<path d="M240.515 129.267C239.986 129.267 239.558 128.926 239.558 128.506V52.41C239.558 51.9897 239.986 51.6491 240.515 51.6491C241.043 51.6491 241.472 51.9897 241.472 52.41V128.506C241.472 128.926 241.043 129.267 240.515 129.267Z" fill="white"/>
</g>
<mask id="mask13_361_147" style="mask-type:luminance" maskUnits="userSpaceOnUse" x="244" y="50" width="3" height="74">
<path d="M245.106 123.356C244.577 123.356 244.149 123.016 244.149 122.596V50.9822C244.149 50.5618 244.577 50.2212 245.106 50.2212C245.634 50.2212 246.062 50.5618 246.062 50.9822V122.596C246.062 123.016 245.634 123.356 245.106 123.356Z" fill="white"/>
</mask>
<g mask="url(#mask13_361_147)">
<path d="M245.106 123.356C244.577 123.356 244.149 123.016 244.149 122.596V50.9822C244.149 50.5618 244.577 50.2212 245.106 50.2212C245.634 50.2212 246.062 50.5618 246.062 50.9822V122.596C246.062 123.016 245.634 123.356 245.106 123.356Z" fill="white"/>
</g>
<mask id="mask14_361_147" style="mask-type:luminance" maskUnits="userSpaceOnUse" x="248" y="47" width="3" height="71">
<path d="M249.697 117.032C249.168 117.032 248.74 116.692 248.74 116.271V48.7347C248.74 48.3144 249.168 47.9738 249.697 47.9738C250.225 47.9738 250.654 48.3144 250.654 48.7347V116.271C250.654 116.692 250.225 117.032 249.697 117.032Z" fill="white"/>
</mask>
<g mask="url(#mask14_361_147)">
<path d="M249.697 117.032C249.168 117.032 248.74 116.692 248.74 116.271V48.7347C248.74 48.3144 249.168 47.9738 249.697 47.9738C250.225 47.9738 250.654 48.3144 250.654 48.7347V116.271C250.654 116.692 250.225 117.032 249.697 117.032Z" fill="white"/>
</g>
<mask id="mask15_361_147" style="mask-type:luminance" maskUnits="userSpaceOnUse" x="253" y="45" width="3" height="67">
<path d="M254.29 111.513C253.762 111.513 253.333 111.172 253.333 110.752V45.922C253.333 45.5017 253.762 45.1611 254.29 45.1611C254.819 45.1611 255.247 45.5017 255.247 45.922V110.752C255.247 111.172 254.819 111.513 254.29 111.513Z" fill="white"/>
</mask>
<g mask="url(#mask15_361_147)">
<path d="M254.29 111.513C253.762 111.513 253.333 111.172 253.333 110.752V45.922C253.333 45.5017 253.762 45.1611 254.29 45.1611C254.819 45.1611 255.247 45.5017 255.247 45.922V110.752C255.247 111.172 254.819 111.513 254.29 111.513Z" fill="white"/>
</g>
<mask id="mask16_361_147" style="mask-type:luminance" maskUnits="userSpaceOnUse" x="257" y="42" width="3" height="66">
<path d="M258.88 107.646C258.351 107.646 257.923 107.305 257.923 106.885V42.8748C257.923 42.4545 258.351 42.1139 258.88 42.1139C259.408 42.1139 259.836 42.4545 259.836 42.8748V106.885C259.836 107.305 259.408 107.646 258.88 107.646Z" fill="white"/>
</mask>
<g mask="url(#mask16_361_147)">
<path d="M258.88 107.646C258.351 107.646 257.923 107.305 257.923 106.885V42.8748C257.923 42.4545 258.351 42.1139 258.88 42.1139C259.408 42.1139 259.836 42.4545 259.836 42.8748V106.885C259.836 107.305 259.408 107.646 258.88 107.646Z" fill="white"/>
</g>
<mask id="mask17_361_147" style="mask-type:luminance" maskUnits="userSpaceOnUse" x="262" y="39" width="3" height="67">
<path d="M263.474 105.462C262.946 105.462 262.518 105.121 262.518 104.701V39.8719C262.518 39.4515 262.946 39.1109 263.474 39.1109C264.003 39.1109 264.431 39.4515 264.431 39.8719V104.701C264.431 105.121 264.003 105.462 263.474 105.462Z" fill="white"/>
</mask>
<g mask="url(#mask17_361_147)">
<path d="M263.474 105.462C262.946 105.462 262.518 105.121 262.518 104.701V39.8719C262.518 39.4515 262.946 39.1109 263.474 39.1109C264.003 39.1109 264.431 39.4515 264.431 39.8719V104.701C264.431 105.121 264.003 105.462 263.474 105.462Z" fill="white"/>
</g>
<mask id="mask18_361_147" style="mask-type:luminance" maskUnits="userSpaceOnUse" x="267" y="36" width="3" height="69">
<path d="M268.069 104.622C267.541 104.622 267.112 104.281 267.112 103.861V37.1586C267.112 36.7382 267.541 36.3976 268.069 36.3976C268.598 36.3976 269.026 36.7382 269.026 37.1586V103.861C269.026 104.281 268.598 104.622 268.069 104.622Z" fill="white"/>
</mask>
<g mask="url(#mask18_361_147)">
<path d="M268.069 104.622C267.541 104.622 267.112 104.281 267.112 103.861V37.1586C267.112 36.7382 267.541 36.3976 268.069 36.3976C268.598 36.3976 269.026 36.7382 269.026 37.1586V103.861C269.026 104.281 268.598 104.622 268.069 104.622Z" fill="white"/>
</g>
<mask id="mask19_361_147" style="mask-type:luminance" maskUnits="userSpaceOnUse" x="271" y="34" width="3" height="71">
<path d="M272.662 104.864C272.134 104.864 271.706 104.524 271.706 104.103V34.9438C271.706 34.5238 272.134 34.1829 272.662 34.1829C273.191 34.1829 273.619 34.5238 273.619 34.9438V104.103C273.619 104.524 273.191 104.864 272.662 104.864Z" fill="white"/>
</mask>
<g mask="url(#mask19_361_147)">
<path d="M272.662 104.864C272.134 104.864 271.706 104.524 271.706 104.103V34.9438C271.706 34.5238 272.134 34.1829 272.662 34.1829C273.191 34.1829 273.619 34.5238 273.619 34.9438V104.103C273.619 104.524 273.191 104.864 272.662 104.864Z" fill="white"/>
</g>
<mask id="mask20_361_147" style="mask-type:luminance" maskUnits="userSpaceOnUse" x="276" y="32" width="3" height="75">
<path d="M277.256 106.216C276.727 106.216 276.299 105.875 276.299 105.455V33.3536C276.299 32.9333 276.727 32.5927 277.256 32.5927C277.784 32.5927 278.212 32.9333 278.212 33.3536V105.455C278.212 105.875 277.784 106.216 277.256 106.216Z" fill="white"/>
</mask>
<g mask="url(#mask20_361_147)">
<path d="M277.256 106.216C276.727 106.216 276.299 105.875 276.299 105.455V33.3536C276.299 32.9333 276.727 32.5927 277.256 32.5927C277.784 32.5927 278.212 32.9333 278.212 33.3536V105.455C278.212 105.875 277.784 106.216 277.256 106.216Z" fill="white"/>
</g>
<mask id="mask21_361_147" style="mask-type:luminance" maskUnits="userSpaceOnUse" x="280" y="31" width="3" height="78">
<path d="M281.841 108.642C281.313 108.642 280.885 108.301 280.885 107.881V32.43C280.885 32.0097 281.313 31.6691 281.841 31.6691C282.37 31.6691 282.798 32.0097 282.798 32.43V107.881C282.798 108.301 282.37 108.642 281.841 108.642Z" fill="white"/>
</mask>
<g mask="url(#mask21_361_147)">
<path d="M281.841 108.642C281.313 108.642 280.885 108.301 280.885 107.881V32.43C280.885 32.0097 281.313 31.6691 281.841 31.6691C282.37 31.6691 282.798 32.0097 282.798 32.43V107.881C282.798 108.301 282.37 108.642 281.841 108.642Z" fill="white"/>
</g>
<mask id="mask22_361_147" style="mask-type:luminance" maskUnits="userSpaceOnUse" x="285" y="31" width="3" height="81">
<path d="M286.434 111.638C285.905 111.638 285.477 111.297 285.477 110.877V32.211C285.477 31.791 285.905 31.4501 286.434 31.4501C286.962 31.4501 287.391 31.791 287.391 32.211V110.877C287.391 111.297 286.962 111.638 286.434 111.638Z" fill="white"/>
</mask>
<g mask="url(#mask22_361_147)">
<path d="M286.434 111.638C285.905 111.638 285.477 111.297 285.477 110.877V32.211C285.477 31.791 285.905 31.4501 286.434 31.4501C286.962 31.4501 287.391 31.791 287.391 32.211V110.877C287.391 111.297 286.962 111.638 286.434 111.638Z" fill="white"/>
</g>
<mask id="mask23_361_147" style="mask-type:luminance" maskUnits="userSpaceOnUse" x="290" y="31" width="2" height="84">
<path d="M291.03 114.371C290.501 114.371 290.073 114.03 290.073 113.61V32.6704C290.073 32.2501 290.501 31.9095 291.03 31.9095C291.558 31.9095 291.987 32.2501 291.987 32.6704V113.61C291.987 114.03 291.558 114.371 291.03 114.371Z" fill="white"/>
</mask>
<g mask="url(#mask23_361_147)">
<path d="M291.03 114.371C290.501 114.371 290.073 114.03 290.073 113.61V32.6704C290.073 32.2501 290.501 31.9095 291.03 31.9095C291.558 31.9095 291.987 32.2501 291.987 32.6704V113.61C291.987 114.03 291.558 114.371 291.03 114.371Z" fill="white"/>
</g>
<mask id="mask24_361_147" style="mask-type:luminance" maskUnits="userSpaceOnUse" x="294" y="33" width="3" height="84">
<path d="M295.622 116.325C295.093 116.325 294.665 115.985 294.665 115.564V33.8818C294.665 33.4615 295.093 33.1209 295.622 33.1209C296.15 33.1209 296.579 33.4615 296.579 33.8818V115.564C296.579 115.985 296.15 116.325 295.622 116.325Z" fill="white"/>
</mask>
<g mask="url(#mask24_361_147)">
<path d="M295.622 116.325C295.093 116.325 294.665 115.985 294.665 115.564V33.8818C294.665 33.4615 295.093 33.1209 295.622 33.1209C296.15 33.1209 296.579 33.4615 296.579 33.8818V115.564C296.579 115.985 296.15 116.325 295.622 116.325Z" fill="white"/>
</g>
<mask id="mask25_361_147" style="mask-type:luminance" maskUnits="userSpaceOnUse" x="299" y="35" width="3" height="83">
<path d="M300.215 117.392C299.686 117.392 299.258 117.051 299.258 116.631V35.8772C299.258 35.4572 299.686 35.1163 300.215 35.1163C300.743 35.1163 301.171 35.4572 301.171 35.8772V116.631C301.171 117.051 300.743 117.392 300.215 117.392Z" fill="white"/>
</mask>
<g mask="url(#mask25_361_147)">
<path d="M300.215 117.392C299.686 117.392 299.258 117.051 299.258 116.631V35.8772C299.258 35.4572 299.686 35.1163 300.215 35.1163C300.743 35.1163 301.171 35.4572 301.171 35.8772V116.631C301.171 117.051 300.743 117.392 300.215 117.392Z" fill="white"/>
</g>
<mask id="mask26_361_147" style="mask-type:luminance" maskUnits="userSpaceOnUse" x="303" y="37" width="3" height="81">
<path d="M304.805 117.716C304.276 117.716 303.848 117.375 303.848 116.955V38.6787C303.848 38.2584 304.276 37.9178 304.805 37.9178C305.333 37.9178 305.762 38.2584 305.762 38.6787V116.955C305.762 117.375 305.333 117.716 304.805 117.716Z" fill="white"/>
</mask>
<g mask="url(#mask26_361_147)">
<path d="M304.805 117.716C304.276 117.716 303.848 117.375 303.848 116.955V38.6787C303.848 38.2584 304.276 37.9178 304.805 37.9178C305.333 37.9178 305.762 38.2584 305.762 38.6787V116.955C305.762 117.375 305.333 117.716 304.805 117.716Z" fill="white"/>
</g>
<mask id="mask27_361_147" style="mask-type:luminance" maskUnits="userSpaceOnUse" x="308" y="41" width="3" height="77">
<path d="M309.396 117.411C308.868 117.411 308.439 117.071 308.439 116.65V42.1288C308.439 41.7088 308.868 41.3679 309.396 41.3679C309.925 41.3679 310.353 41.7088 310.353 42.1288V116.65C310.353 117.071 309.925 117.411 309.396 117.411Z" fill="white"/>
</mask>
<g mask="url(#mask27_361_147)">
<path d="M309.396 117.411C308.868 117.411 308.439 117.071 308.439 116.65V42.1288C308.439 41.7088 308.868 41.3679 309.396 41.3679C309.925 41.3679 310.353 41.7088 310.353 42.1288V116.65C310.353 117.071 309.925 117.411 309.396 117.411Z" fill="white"/>
</g>
<mask id="mask28_361_147" style="mask-type:luminance" maskUnits="userSpaceOnUse" x="313" y="45" width="2" height="72">
<path d="M313.991 116.466C313.463 116.466 313.035 116.125 313.035 115.705V45.9985C313.035 45.5781 313.463 45.2375 313.991 45.2375C314.52 45.2375 314.948 45.5781 314.948 45.9985V115.705C314.948 116.125 314.52 116.466 313.991 116.466Z" fill="white"/>
</mask>
<g mask="url(#mask28_361_147)">
<path d="M313.991 116.466C313.463 116.466 313.035 116.125 313.035 115.705V45.9985C313.035 45.5781 313.463 45.2375 313.991 45.2375C314.52 45.2375 314.948 45.5781 314.948 45.9985V115.705C314.948 116.125 314.52 116.466 313.991 116.466Z" fill="white"/>
</g>
<mask id="mask29_361_147" style="mask-type:luminance" maskUnits="userSpaceOnUse" x="317" y="49" width="3" height="66">
<path d="M318.587 114.731C318.059 114.731 317.63 114.391 317.63 113.971V49.9751C317.63 49.5551 318.059 49.2142 318.587 49.2142C319.116 49.2142 319.544 49.5551 319.544 49.9751V113.971C319.544 114.391 319.116 114.731 318.587 114.731Z" fill="white"/>
</mask>
<g mask="url(#mask29_361_147)">
<path d="M318.587 114.731C318.059 114.731 317.63 114.391 317.63 113.971V49.9751C317.63 49.5551 318.059 49.2142 318.587 49.2142C319.116 49.2142 319.544 49.5551 319.544 49.9751V113.971C319.544 114.391 319.116 114.731 318.587 114.731Z" fill="white"/>
</g>
<mask id="mask30_361_147" style="mask-type:luminance" maskUnits="userSpaceOnUse" x="322" y="53" width="3" height="60">
<path d="M323.174 112.157C322.645 112.157 322.217 111.817 322.217 111.396V53.8317C322.217 53.4114 322.645 53.0708 323.174 53.0708C323.702 53.0708 324.13 53.4114 324.13 53.8317V111.396C324.13 111.817 323.702 112.157 323.174 112.157Z" fill="white"/>
</mask>
<g mask="url(#mask30_361_147)">
<path d="M323.174 112.157C322.645 112.157 322.217 111.817 322.217 111.396V53.8317C322.217 53.4114 322.645 53.0708 323.174 53.0708C323.702 53.0708 324.13 53.4114 324.13 53.8317V111.396C324.13 111.817 323.702 112.157 323.174 112.157Z" fill="white"/>
</g>
<mask id="mask31_361_147" style="mask-type:luminance" maskUnits="userSpaceOnUse" x="326" y="56" width="3" height="53">
<path d="M327.769 108.743C327.24 108.743 326.812 108.403 326.812 107.982V57.3946C326.812 56.9742 327.24 56.6336 327.769 56.6336C328.297 56.6336 328.725 56.9742 328.725 57.3946V107.982C328.725 108.403 328.297 108.743 327.769 108.743Z" fill="white"/>
</mask>
<g mask="url(#mask31_361_147)">
<path d="M327.769 108.743C327.24 108.743 326.812 108.403 326.812 107.982V57.3946C326.812 56.9742 327.24 56.6336 327.769 56.6336C328.297 56.6336 328.725 56.9742 328.725 57.3946V107.982C328.725 108.403 328.297 108.743 327.769 108.743Z" fill="white"/>
</g>
<mask id="mask32_361_147" style="mask-type:luminance" maskUnits="userSpaceOnUse" x="331" y="59" width="3" height="46">
<path d="M332.361 104.677C331.833 104.677 331.404 104.336 331.404 103.916V60.5787C331.404 60.1584 331.833 59.8178 332.361 59.8178C332.89 59.8178 333.318 60.1584 333.318 60.5787V103.916C333.318 104.336 332.89 104.677 332.361 104.677Z" fill="white"/>
</mask>
<g mask="url(#mask32_361_147)">
<path d="M332.361 104.677C331.833 104.677 331.404 104.336 331.404 103.916V60.5787C331.404 60.1584 331.833 59.8178 332.361 59.8178C332.89 59.8178 333.318 60.1584 333.318 60.5787V103.916C333.318 104.336 332.89 104.677 332.361 104.677Z" fill="white"/>
</g>
<mask id="mask33_361_147" style="mask-type:luminance" maskUnits="userSpaceOnUse" x="335" y="62" width="3" height="39">
<path d="M336.952 100.317C336.423 100.317 335.995 99.9765 335.995 99.5564V63.381C335.995 62.9607 336.423 62.6201 336.952 62.6201C337.48 62.6201 337.909 62.9607 337.909 63.381V99.5564C337.909 99.9765 337.48 100.317 336.952 100.317Z" fill="white"/>
</mask>
<g mask="url(#mask33_361_147)">
<path d="M336.952 100.317C336.423 100.317 335.995 99.9765 335.995 99.5564V63.381C335.995 62.9607 336.423 62.6201 336.952 62.6201C337.48 62.6201 337.909 62.9607 337.909 63.381V99.5564C337.909 99.9765 337.48 100.317 336.952 100.317Z" fill="white"/>
</g>
<mask id="mask34_361_147" style="mask-type:luminance" maskUnits="userSpaceOnUse" x="340" y="65" width="3" height="32">
<path d="M341.541 96.0127C341.013 96.0127 340.584 95.6721 340.584 95.2518V65.7848C340.584 65.3644 341.013 65.0238 341.541 65.0238C342.07 65.0238 342.498 65.3644 342.498 65.7848V95.2518C342.498 95.6721 342.07 96.0127 341.541 96.0127Z" fill="white"/>
</mask>
<g mask="url(#mask34_361_147)">
<path d="M341.541 96.0127C341.013 96.0127 340.584 95.6721 340.584 95.2518V65.7848C340.584 65.3644 341.013 65.0238 341.541 65.0238C342.07 65.0238 342.498 65.3644 342.498 65.7848V95.2518C342.498 95.6721 342.07 96.0127 341.541 96.0127Z" fill="white"/>
</g>
<mask id="mask35_361_147" style="mask-type:luminance" maskUnits="userSpaceOnUse" x="345" y="67" width="3" height="26">
<path d="M346.136 92.04C345.607 92.04 345.179 91.6994 345.179 91.2791V67.8257C345.179 67.4053 345.607 67.0647 346.136 67.0647C346.664 67.0647 347.093 67.4053 347.093 67.8257V91.2791C347.093 91.6994 346.664 92.04 346.136 92.04Z" fill="white"/>
</mask>
<g mask="url(#mask35_361_147)">
<path d="M346.136 92.04C345.607 92.04 345.179 91.6994 345.179 91.2791V67.8257C345.179 67.4053 345.607 67.0647 346.136 67.0647C346.664 67.0647 347.093 67.4053 347.093 67.8257V91.2791C347.093 91.6994 346.664 92.04 346.136 92.04Z" fill="white"/>
</g>
<mask id="mask36_361_147" style="mask-type:luminance" maskUnits="userSpaceOnUse" x="349" y="68" width="3" height="21">
<path d="M350.73 88.5322C350.202 88.5322 349.773 88.1916 349.773 87.7713V69.5367C349.773 69.1164 350.202 68.7758 350.73 68.7758C351.259 68.7758 351.687 69.1164 351.687 69.5367V87.7713C351.687 88.1916 351.259 88.5322 350.73 88.5322Z" fill="white"/>
</mask>
<g mask="url(#mask36_361_147)">
<path d="M350.73 88.5322C350.202 88.5322 349.773 88.1916 349.773 87.7713V69.5367C349.773 69.1164 350.202 68.7758 350.73 68.7758C351.259 68.7758 351.687 69.1164 351.687 69.5367V87.7713C351.687 88.1916 351.259 88.5322 350.73 88.5322Z" fill="white"/>
</g>
<mask id="mask37_361_147" style="mask-type:luminance" maskUnits="userSpaceOnUse" x="354" y="70" width="3" height="16">
<path d="M355.323 85.5205C354.795 85.5205 354.367 85.1796 354.367 84.7596V70.9534C354.367 70.533 354.795 70.1924 355.323 70.1924C355.852 70.1924 356.28 70.533 356.28 70.9534V84.7596C356.28 85.1796 355.852 85.5205 355.323 85.5205Z" fill="white"/>
</mask>
<g mask="url(#mask37_361_147)">
<path d="M355.323 85.5205C354.795 85.5205 354.367 85.1796 354.367 84.7596V70.9534C354.367 70.533 354.795 70.1924 355.323 70.1924C355.852 70.1924 356.28 70.533 356.28 70.9534V84.7596C356.28 85.1796 355.852 85.5205 355.323 85.5205Z" fill="white"/>
</g>
<mask id="mask38_361_147" style="mask-type:luminance" maskUnits="userSpaceOnUse" x="358" y="71" width="3" height="12">
<path d="M359.914 82.9814C359.386 82.9814 358.958 82.6408 358.958 82.2205V72.1046C358.958 71.6842 359.386 71.3436 359.914 71.3436C360.443 71.3436 360.871 71.6842 360.871 72.1046V82.2205C360.871 82.6408 360.443 82.9814 359.914 82.9814Z" fill="white"/>
</mask>
<g mask="url(#mask38_361_147)">
<path d="M359.914 82.9814C359.386 82.9814 358.958 82.6408 358.958 82.2205V72.1046C358.958 71.6842 359.386 71.3436 359.914 71.3436C360.443 71.3436 360.871 71.6842 360.871 72.1046V82.2205C360.871 82.6408 360.443 82.9814 359.914 82.9814Z" fill="white"/>
</g>
<mask id="mask39_361_147" style="mask-type:luminance" maskUnits="userSpaceOnUse" x="363" y="72" width="3" height="9">
<path d="M364.505 80.8604C363.976 80.8604 363.548 80.5198 363.548 80.0994V73.0071C363.548 72.5871 363.976 72.2462 364.505 72.2462C365.033 72.2462 365.461 72.5871 365.461 73.0071V80.0994C365.461 80.5198 365.033 80.8604 364.505 80.8604Z" fill="white"/>
</mask>
<g mask="url(#mask39_361_147)">
<path d="M364.505 80.8604C363.976 80.8604 363.548 80.5198 363.548 80.0994V73.0071C363.548 72.5871 363.976 72.2462 364.505 72.2462C365.033 72.2462 365.461 72.5871 365.461 73.0071V80.0994C365.461 80.5198 365.033 80.8604 364.505 80.8604Z" fill="white"/>
</g>
<mask id="mask40_361_147" style="mask-type:luminance" maskUnits="userSpaceOnUse" x="368" y="72" width="3" height="8">
<path d="M369.095 79.1143C368.567 79.1143 368.139 78.7737 368.139 78.3533V73.6924C368.139 73.2721 368.567 72.9315 369.095 72.9315C369.624 72.9315 370.052 73.2721 370.052 73.6924V78.3533C370.052 78.7737 369.624 79.1143 369.095 79.1143Z" fill="white"/>
</mask>
<g mask="url(#mask40_361_147)">
<path d="M369.095 79.1143C368.567 79.1143 368.139 78.7737 368.139 78.3533V73.6924C368.139 73.2721 368.567 72.9315 369.095 72.9315C369.624 72.9315 370.052 73.2721 370.052 73.6924V78.3533C370.052 78.7737 369.624 79.1143 369.095 79.1143Z" fill="white"/>
</g>
<mask id="mask41_361_147" style="mask-type:luminance" maskUnits="userSpaceOnUse" x="372" y="73" width="3" height="5">
<path d="M373.692 77.708C373.163 77.708 372.735 77.3674 372.735 76.9471V74.1833C372.735 73.763 373.163 73.4224 373.692 73.4224C374.22 73.4224 374.648 73.763 374.648 74.1833V76.9471C374.648 77.3674 374.22 77.708 373.692 77.708Z" fill="white"/>
</mask>
<g mask="url(#mask41_361_147)">
<path d="M373.692 77.708C373.163 77.708 372.735 77.3674 372.735 76.9471V74.1833C372.735 73.763 373.163 73.4224 373.692 73.4224C374.22 73.4224 374.648 73.763 374.648 74.1833V76.9471C374.648 77.3674 374.22 77.708 373.692 77.708Z" fill="white"/>
</g>
<mask id="mask42_361_147" style="mask-type:luminance" maskUnits="userSpaceOnUse" x="377" y="73" width="3" height="4">
<path d="M378.286 76.5752C377.757 76.5752 377.329 76.2346 377.329 75.8143V74.4832C377.329 74.0629 377.757 73.7223 378.286 73.7223C378.814 73.7223 379.243 74.0629 379.243 74.4832V75.8143C379.243 76.2346 378.814 76.5752 378.286 76.5752Z" fill="white"/>
</mask>
<g mask="url(#mask42_361_147)">
<path d="M378.286 76.5752C377.757 76.5752 377.329 76.2346 377.329 75.8143V74.4832C377.329 74.0629 377.757 73.7223 378.286 73.7223C378.814 73.7223 379.243 74.0629 379.243 74.4832V75.8143C379.243 76.2346 378.814 76.5752 378.286 76.5752Z" fill="white"/>
</g>
<mask id="mask43_361_147" style="mask-type:luminance" maskUnits="userSpaceOnUse" x="381" y="73" width="3" height="3">
<path d="M382.876 75.708C382.348 75.708 381.92 75.3671 381.92 74.9471V74.6399C381.92 74.2196 382.348 73.8711 382.876 73.8711C383.404 73.8711 383.833 74.2038 383.833 74.6241V74.9471C383.833 75.3671 383.404 75.708 382.876 75.708Z" fill="white"/>
</mask>
<g mask="url(#mask43_361_147)">
<path d="M382.876 75.708C382.348 75.708 381.92 75.3671 381.92 74.9471V74.6399C381.92 74.2196 382.348 73.8711 382.876 73.8711C383.404 73.8711 383.833 74.2038 383.833 74.6241V74.9471C383.833 75.3671 383.404 75.708 382.876 75.708Z" fill="white"/>
</g>
<mask id="mask44_361_147" style="mask-type:luminance" maskUnits="userSpaceOnUse" x="193" y="10" width="3" height="131">
<path d="M194.591 140.54C194.063 140.54 193.635 140.199 193.635 139.779V10.9117C193.635 10.4913 194.063 10.1507 194.591 10.1507C195.12 10.1507 195.548 10.4913 195.548 10.9117V139.779C195.548 140.199 195.12 140.54 194.591 140.54Z" fill="white"/>
</mask>
<g mask="url(#mask44_361_147)">
<path d="M194.591 140.54C194.063 140.54 193.635 140.199 193.635 139.779V10.9117C193.635 10.4913 194.063 10.1507 194.591 10.1507C195.12 10.1507 195.548 10.4913 195.548 10.9117V139.779C195.548 140.199 195.12 140.54 194.591 140.54Z" fill="white"/>
</g>
<mask id="mask45_361_147" style="mask-type:luminance" maskUnits="userSpaceOnUse" x="189" y="5" width="2" height="134">
<path d="M189.999 138.06C189.47 138.06 189.042 137.719 189.042 137.299V6.61833C189.042 6.19799 189.47 5.85739 189.999 5.85739C190.527 5.85739 190.955 6.19799 190.955 6.61833V137.299C190.955 137.719 190.527 138.06 189.999 138.06Z" fill="white"/>
</mask>
<g mask="url(#mask45_361_147)">
<path d="M189.999 138.06C189.47 138.06 189.042 137.719 189.042 137.299V6.61833C189.042 6.19799 189.47 5.85739 189.999 5.85739C190.527 5.85739 190.955 6.19799 190.955 6.61833V137.299C190.955 137.719 190.527 138.06 189.999 138.06Z" fill="white"/>
</g>
<mask id="mask46_361_147" style="mask-type:luminance" maskUnits="userSpaceOnUse" x="184" y="2" width="3" height="133">
<path d="M185.405 134.411C184.876 134.411 184.448 134.07 184.448 133.65V3.62001C184.448 3.19967 184.876 2.85907 185.405 2.85907C185.933 2.85907 186.362 3.19967 186.362 3.62001V133.65C186.362 134.07 185.933 134.411 185.405 134.411Z" fill="white"/>
</mask>
<g mask="url(#mask46_361_147)">
<path d="M185.405 134.411C184.876 134.411 184.448 134.07 184.448 133.65V3.62001C184.448 3.19967 184.876 2.85907 185.405 2.85907C185.933 2.85907 186.362 3.19967 186.362 3.62001V133.65C186.362 134.07 185.933 134.411 185.405 134.411Z" fill="white"/>
</g>
<mask id="mask47_361_147" style="mask-type:luminance" maskUnits="userSpaceOnUse" x="179" y="1" width="3" height="129">
<path d="M180.813 129.239C180.285 129.239 179.856 128.899 179.856 128.478V1.8322C179.856 1.41186 180.285 1.07126 180.813 1.07126C181.342 1.07126 181.77 1.41186 181.77 1.8322V128.478C181.77 128.899 181.342 129.239 180.813 129.239Z" fill="white"/>
</mask>
<g mask="url(#mask47_361_147)">
<path d="M180.813 129.239C180.285 129.239 179.856 128.899 179.856 128.478V1.8322C179.856 1.41186 180.285 1.07126 180.813 1.07126C181.342 1.07126 181.77 1.41186 181.77 1.8322V128.478C181.77 128.899 181.342 129.239 180.813 129.239Z" fill="white"/>
</g>
<mask id="mask48_361_147" style="mask-type:luminance" maskUnits="userSpaceOnUse" x="175" y="0" width="3" height="123">
<path d="M176.219 122.165C175.69 122.165 175.262 121.824 175.262 121.404V1.10575C175.262 0.685407 175.69 0.34481 176.219 0.34481C176.747 0.34481 177.176 0.685407 177.176 1.10575V121.404C177.176 121.824 176.747 122.165 176.219 122.165Z" fill="white"/>
</mask>
<g mask="url(#mask48_361_147)">
<path d="M176.219 122.165C175.69 122.165 175.262 121.824 175.262 121.404V1.10575C175.262 0.685407 175.69 0.34481 176.219 0.34481C176.747 0.34481 177.176 0.685407 177.176 1.10575V121.404C177.176 121.824 176.747 122.165 176.219 122.165Z" fill="white"/>
</g>
<mask id="mask49_361_147" style="mask-type:luminance" maskUnits="userSpaceOnUse" x="170" y="0" width="3" height="114">
<path d="M171.626 113.415C171.098 113.415 170.669 113.074 170.669 112.654V1.36346C170.669 0.943118 171.098 0.60252 171.626 0.60252C172.155 0.60252 172.583 0.943118 172.583 1.36346V112.654C172.583 113.074 172.155 113.415 171.626 113.415Z" fill="white"/>
</mask>
<g mask="url(#mask49_361_147)">
<path d="M171.626 113.415C171.098 113.415 170.669 113.074 170.669 112.654V1.36346C170.669 0.943118 171.098 0.60252 171.626 0.60252C172.155 0.60252 172.583 0.943118 172.583 1.36346V112.654C172.583 113.074 172.155 113.415 171.626 113.415Z" fill="white"/>
</g>
<mask id="mask50_361_147" style="mask-type:luminance" maskUnits="userSpaceOnUse" x="166" y="2" width="2" height="103">
<path d="M167.037 104.696C166.508 104.696 166.08 104.356 166.08 103.935V2.76463C166.08 2.34429 166.508 2.00369 167.037 2.00369C167.565 2.00369 167.994 2.34429 167.994 2.76463V103.935C167.994 104.356 167.565 104.696 167.037 104.696Z" fill="white"/>
</mask>
<g mask="url(#mask50_361_147)">
<path d="M167.037 104.696C166.508 104.696 166.08 104.356 166.08 103.935V2.76463C166.08 2.34429 166.508 2.00369 167.037 2.00369C167.565 2.00369 167.994 2.34429 167.994 2.76463V103.935C167.994 104.356 167.565 104.696 167.037 104.696Z" fill="white"/>
</g>
<mask id="mask51_361_147" style="mask-type:luminance" maskUnits="userSpaceOnUse" x="161" y="4" width="3" height="94">
<path d="M162.446 97.9736C161.917 97.9736 161.489 97.633 161.489 97.2127V5.46454C161.489 5.04419 161.917 4.7036 162.446 4.7036C162.974 4.7036 163.403 5.04419 163.403 5.46454V97.2127C163.403 97.633 162.974 97.9736 162.446 97.9736Z" fill="white"/>
</mask>
<g mask="url(#mask51_361_147)">
<path d="M162.446 97.9736C161.917 97.9736 161.489 97.633 161.489 97.2127V5.46454C161.489 5.04419 161.917 4.7036 162.446 4.7036C162.974 4.7036 163.403 5.04419 163.403 5.46454V97.2127C163.403 97.633 162.974 97.9736 162.446 97.9736Z" fill="white"/>
</g>
<mask id="mask52_361_147" style="mask-type:luminance" maskUnits="userSpaceOnUse" x="156" y="8" width="3" height="86">
<path d="M157.85 93.583C157.322 93.583 156.894 93.2424 156.894 92.8221V9.55322C156.894 9.13288 157.322 8.79228 157.85 8.79228C158.379 8.79228 158.807 9.13288 158.807 9.55322V92.8221C158.807 93.2424 158.379 93.583 157.85 93.583Z" fill="white"/>
</mask>
<g mask="url(#mask52_361_147)">
<path d="M157.85 93.583C157.322 93.583 156.894 93.2424 156.894 92.8221V9.55322C156.894 9.13288 157.322 8.79228 157.85 8.79228C158.379 8.79228 158.807 9.13288 158.807 9.55322V92.8221C158.807 93.2424 158.379 93.583 157.85 93.583Z" fill="white"/>
</g>
<mask id="mask53_361_147" style="mask-type:luminance" maskUnits="userSpaceOnUse" x="152" y="14" width="3" height="78">
<path d="M153.262 91.0088C152.734 91.0088 152.306 90.6682 152.306 90.2478V15.0328C152.306 14.6125 152.734 14.2719 153.262 14.2719C153.791 14.2719 154.219 14.6125 154.219 15.0328V90.2478C154.219 90.6682 153.791 91.0088 153.262 91.0088Z" fill="white"/>
</mask>
<g mask="url(#mask53_361_147)">
<path d="M153.262 91.0088C152.734 91.0088 152.306 90.6682 152.306 90.2478V15.0328C152.306 14.6125 152.734 14.2719 153.262 14.2719C153.791 14.2719 154.219 14.6125 154.219 15.0328V90.2478C154.219 90.6682 153.791 91.0088 153.262 91.0088Z" fill="white"/>
</g>
<mask id="mask54_361_147" style="mask-type:luminance" maskUnits="userSpaceOnUse" x="147" y="21" width="3" height="69">
<path d="M148.667 89.751C148.138 89.751 147.71 89.4104 147.71 88.99V21.7768C147.71 21.3564 148.138 21.0158 148.667 21.0158C149.195 21.0158 149.623 21.3564 149.623 21.7768V88.99C149.623 89.4104 149.195 89.751 148.667 89.751Z" fill="white"/>
</mask>
<g mask="url(#mask54_361_147)">
<path d="M148.667 89.751C148.138 89.751 147.71 89.4104 147.71 88.99V21.7768C147.71 21.3564 148.138 21.0158 148.667 21.0158C149.195 21.0158 149.623 21.3564 149.623 21.7768V88.99C149.623 89.4104 149.195 89.751 148.667 89.751Z" fill="white"/>
</g>
<mask id="mask55_361_147" style="mask-type:luminance" maskUnits="userSpaceOnUse" x="143" y="28" width="3" height="62">
<path d="M144.074 89.4463C143.546 89.4463 143.118 89.1057 143.118 88.6853V29.4005C143.118 28.9801 143.546 28.6395 144.074 28.6395C144.603 28.6395 145.031 28.9801 145.031 29.4005V88.6853C145.031 89.1057 144.603 89.4463 144.074 89.4463Z" fill="white"/>
</mask>
<g mask="url(#mask55_361_147)">
<path d="M144.074 89.4463C143.546 89.4463 143.118 89.1057 143.118 88.6853V29.4005C143.118 28.9801 143.546 28.6395 144.074 28.6395C144.603 28.6395 145.031 28.9801 145.031 29.4005V88.6853C145.031 89.1057 144.603 89.4463 144.074 89.4463Z" fill="white"/>
</g>
<mask id="mask56_361_147" style="mask-type:luminance" maskUnits="userSpaceOnUse" x="138" y="36" width="3" height="55">
<path d="M139.482 90.0127C138.953 90.0127 138.525 89.6718 138.525 89.2518V37.2378C138.525 36.8175 138.953 36.4769 139.482 36.4769C140.01 36.4769 140.438 36.8175 140.438 37.2378V89.2518C140.438 89.6718 140.01 90.0127 139.482 90.0127Z" fill="white"/>
</mask>
<g mask="url(#mask56_361_147)">
<path d="M139.482 90.0127C138.953 90.0127 138.525 89.6718 138.525 89.2518V37.2378C138.525 36.8175 138.953 36.4769 139.482 36.4769C140.01 36.4769 140.438 36.8175 140.438 37.2378V89.2518C140.438 89.6718 140.01 90.0127 139.482 90.0127Z" fill="white"/>
</g>
<mask id="mask57_361_147" style="mask-type:luminance" maskUnits="userSpaceOnUse" x="133" y="43" width="3" height="49">
<path d="M134.888 91.3799C134.36 91.3799 133.932 91.0393 133.932 90.6189V44.4612C133.932 44.0408 134.36 43.7002 134.888 43.7002C135.417 43.7002 135.845 44.0408 135.845 44.4612V90.6189C135.845 91.0393 135.417 91.3799 134.888 91.3799Z" fill="white"/>
</mask>
<g mask="url(#mask57_361_147)">
<path d="M134.888 91.3799C134.36 91.3799 133.932 91.0393 133.932 90.6189V44.4612C133.932 44.0408 134.36 43.7002 134.888 43.7002C135.417 43.7002 135.845 44.0408 135.845 44.4612V90.6189C135.845 91.0393 135.417 91.3799 134.888 91.3799Z" fill="white"/>
</g>
<mask id="mask58_361_147" style="mask-type:luminance" maskUnits="userSpaceOnUse" x="129" y="49" width="3" height="45">
<path d="M130.3 93.3604C129.771 93.3604 129.343 93.0198 129.343 92.5994V50.3142C129.343 49.8939 129.771 49.5533 130.3 49.5533C130.828 49.5533 131.256 49.8939 131.256 50.3142V92.5994C131.256 93.0198 130.828 93.3604 130.3 93.3604Z" fill="white"/>
</mask>
<g mask="url(#mask58_361_147)">
<path d="M130.3 93.3604C129.771 93.3604 129.343 93.0198 129.343 92.5994V50.3142C129.343 49.8939 129.771 49.5533 130.3 49.5533C130.828 49.5533 131.256 49.8939 131.256 50.3142V92.5994C131.256 93.0198 130.828 93.3604 130.3 93.3604Z" fill="white"/>
</g>
<mask id="mask59_361_147" style="mask-type:luminance" maskUnits="userSpaceOnUse" x="124" y="53" width="3" height="43">
<path d="M125.704 95.7783C125.176 95.7783 124.748 95.4377 124.748 95.0174V54.3067C124.748 53.8864 125.176 53.5458 125.704 53.5458C126.233 53.5458 126.661 53.8864 126.661 54.3067V95.0174C126.661 95.4377 126.233 95.7783 125.704 95.7783Z" fill="white"/>
</mask>
<g mask="url(#mask59_361_147)">
<path d="M125.704 95.7783C125.176 95.7783 124.748 95.4377 124.748 95.0174V54.3067C124.748 53.8864 125.176 53.5458 125.704 53.5458C126.233 53.5458 126.661 53.8864 126.661 54.3067V95.0174C126.661 95.4377 126.233 95.7783 125.704 95.7783Z" fill="white"/>
</g>
<mask id="mask60_361_147" style="mask-type:luminance" maskUnits="userSpaceOnUse" x="120" y="55" width="3" height="44">
<path d="M121.112 98.4775C120.584 98.4775 120.155 98.1369 120.155 97.7166V56.2901C120.155 55.8697 120.584 55.5291 121.112 55.5291C121.641 55.5291 122.069 55.8697 122.069 56.2901V97.7166C122.069 98.1369 121.641 98.4775 121.112 98.4775Z" fill="white"/>
</mask>
<g mask="url(#mask60_361_147)">
<path d="M121.112 98.4775C120.584 98.4775 120.155 98.1369 120.155 97.7166V56.2901C120.155 55.8697 120.584 55.5291 121.112 55.5291C121.641 55.5291 122.069 55.8697 122.069 56.2901V97.7166C122.069 98.1369 121.641 98.4775 121.112 98.4775Z" fill="white"/>
</g>
<mask id="mask61_361_147" style="mask-type:luminance" maskUnits="userSpaceOnUse" x="115" y="55" width="3" height="47">
<path d="M116.519 101.282C115.99 101.282 115.562 100.941 115.562 100.521V56.2845C115.562 55.8641 115.99 55.5235 116.519 55.5235C117.047 55.5235 117.475 55.8641 117.475 56.2845V100.521C117.475 100.941 117.047 101.282 116.519 101.282Z" fill="white"/>
</mask>
<g mask="url(#mask61_361_147)">
<path d="M116.519 101.282C115.99 101.282 115.562 100.941 115.562 100.521V56.2845C115.562 55.8641 115.99 55.5235 116.519 55.5235C117.047 55.5235 117.475 55.8641 117.475 56.2845V100.521C117.475 100.941 117.047 101.282 116.519 101.282Z" fill="white"/>
</g>
<mask id="mask62_361_147" style="mask-type:luminance" maskUnits="userSpaceOnUse" x="110" y="53" width="3" height="52">
<path d="M111.932 104.075C111.404 104.075 110.976 103.735 110.976 103.314V54.5106C110.976 54.0902 111.404 53.7496 111.932 53.7496C112.461 53.7496 112.889 54.0902 112.889 54.5106V103.314C112.889 103.735 112.461 104.075 111.932 104.075Z" fill="white"/>
</mask>
<g mask="url(#mask62_361_147)">
<path d="M111.932 104.075C111.404 104.075 110.976 103.735 110.976 103.314V54.5106C110.976 54.0902 111.404 53.7496 111.932 53.7496C112.461 53.7496 112.889 54.0902 112.889 54.5106V103.314C112.889 103.735 112.461 104.075 111.932 104.075Z" fill="white"/>
</g>
<mask id="mask63_361_147" style="mask-type:luminance" maskUnits="userSpaceOnUse" x="106" y="50" width="3" height="57">
<path d="M107.335 106.681C106.807 106.681 106.378 106.34 106.378 105.92V51.5021C106.378 51.0821 106.807 50.7412 107.335 50.7412C107.864 50.7412 108.292 51.0821 108.292 51.5021V105.92C108.292 106.34 107.864 106.681 107.335 106.681Z" fill="white"/>
</mask>
<g mask="url(#mask63_361_147)">
<path d="M107.335 106.681C106.807 106.681 106.378 106.34 106.378 105.92V51.5021C106.378 51.0821 106.807 50.7412 107.335 50.7412C107.864 50.7412 108.292 51.0821 108.292 51.5021V105.92C108.292 106.34 107.864 106.681 107.335 106.681Z" fill="white"/>
</g>
<mask id="mask64_361_147" style="mask-type:luminance" maskUnits="userSpaceOnUse" x="101" y="47" width="3" height="62">
<path d="M102.744 108.958C102.215 108.958 101.787 108.617 101.787 108.197V47.8094C101.787 47.3891 102.215 47.0485 102.744 47.0485C103.272 47.0485 103.701 47.3891 103.701 47.8094V108.197C103.701 108.617 103.272 108.958 102.744 108.958Z" fill="white"/>
</mask>
<g mask="url(#mask64_361_147)">
<path d="M102.744 108.958C102.215 108.958 101.787 108.617 101.787 108.197V47.8094C101.787 47.3891 102.215 47.0485 102.744 47.0485C103.272 47.0485 103.701 47.3891 103.701 47.8094V108.197C103.701 108.617 103.272 108.958 102.744 108.958Z" fill="white"/>
</g>
<mask id="mask65_361_147" style="mask-type:luminance" maskUnits="userSpaceOnUse" x="97" y="43" width="3" height="68">
<path d="M98.1501 110.752C97.6216 110.752 97.1934 110.411 97.1934 109.991V43.903C97.1934 43.483 97.6216 43.1421 98.1501 43.1421C98.6786 43.1421 99.1068 43.483 99.1068 43.903V109.991C99.1068 110.411 98.6786 110.752 98.1501 110.752Z" fill="white"/>
</mask>
<g mask="url(#mask65_361_147)">
<path d="M98.1501 110.752C97.6216 110.752 97.1934 110.411 97.1934 109.991V43.903C97.1934 43.483 97.6216 43.1421 98.1501 43.1421C98.6786 43.1421 99.1068 43.483 99.1068 43.903V109.991C99.1068 110.411 98.6786 110.752 98.1501 110.752Z" fill="white"/>
</g>
<mask id="mask66_361_147" style="mask-type:luminance" maskUnits="userSpaceOnUse" x="92" y="39" width="3" height="73">
<path d="M93.5544 111.915C93.0259 111.915 92.5977 111.574 92.5977 111.154V40.2028C92.5977 39.7824 93.0259 39.4418 93.5544 39.4418C94.0829 39.4418 94.5111 39.7824 94.5111 40.2028V111.154C94.5111 111.574 94.0829 111.915 93.5544 111.915Z" fill="white"/>
</mask>
<g mask="url(#mask66_361_147)">
<path d="M93.5544 111.915C93.0259 111.915 92.5977 111.574 92.5977 111.154V40.2028C92.5977 39.7824 93.0259 39.4418 93.5544 39.4418C94.0829 39.4418 94.5111 39.7824 94.5111 40.2028V111.154C94.5111 111.574 94.0829 111.915 93.5544 111.915Z" fill="white"/>
</g>
<mask id="mask67_361_147" style="mask-type:luminance" maskUnits="userSpaceOnUse" x="88" y="36" width="2" height="77">
<path d="M88.965 112.286C88.4365 112.286 88.0083 111.946 88.0083 111.525V37.0565C88.0083 36.6361 88.4365 36.2955 88.965 36.2955C89.4935 36.2955 89.9218 36.6361 89.9218 37.0565V111.525C89.9218 111.946 89.4935 112.286 88.965 112.286Z" fill="white"/>
</mask>
<g mask="url(#mask67_361_147)">
<path d="M88.965 112.286C88.4365 112.286 88.0083 111.946 88.0083 111.525V37.0565C88.0083 36.6361 88.4365 36.2955 88.965 36.2955C89.4935 36.2955 89.9218 36.6361 89.9218 37.0565V111.525C89.9218 111.946 89.4935 112.286 88.965 112.286Z" fill="white"/>
</g>
<mask id="mask68_361_147" style="mask-type:luminance" maskUnits="userSpaceOnUse" x="83" y="33" width="3" height="80">
<path d="M84.3762 112.017C83.8477 112.017 83.4194 111.676 83.4194 111.256V34.7565C83.4194 34.3361 83.8477 33.9955 84.3762 33.9955C84.9047 33.9955 85.3329 34.3361 85.3329 34.7565V111.256C85.3329 111.676 84.9047 112.017 84.3762 112.017Z" fill="white"/>
</mask>
<g mask="url(#mask68_361_147)">
<path d="M84.3762 112.017C83.8477 112.017 83.4194 111.676 83.4194 111.256V34.7565C83.4194 34.3361 83.8477 33.9955 84.3762 33.9955C84.9047 33.9955 85.3329 34.3361 85.3329 34.7565V111.256C85.3329 111.676 84.9047 112.017 84.3762 112.017Z" fill="white"/>
</g>
<mask id="mask69_361_147" style="mask-type:luminance" maskUnits="userSpaceOnUse" x="78" y="32" width="3" height="80">
<path d="M79.7824 111.219C79.2539 111.219 78.8257 110.878 78.8257 110.458V33.5212C78.8257 33.1009 79.2539 32.7603 79.7824 32.7603C80.3109 32.7603 80.7391 33.1009 80.7391 33.5212V110.458C80.7391 110.878 80.3109 111.219 79.7824 111.219Z" fill="white"/>
</mask>
<g mask="url(#mask69_361_147)">
<path d="M79.7824 111.219C79.2539 111.219 78.8257 110.878 78.8257 110.458V33.5212C78.8257 33.1009 79.2539 32.7603 79.7824 32.7603C80.3109 32.7603 80.7391 33.1009 80.7391 33.5212V110.458C80.7391 110.878 80.3109 111.219 79.7824 111.219Z" fill="white"/>
</g>
<mask id="mask70_361_147" style="mask-type:luminance" maskUnits="userSpaceOnUse" x="74" y="32" width="3" height="78">
<path d="M75.1892 109.841C74.6607 109.841 74.2324 109.5 74.2324 109.08V33.4947C74.2324 33.0747 74.6607 32.7338 75.1892 32.7338C75.7177 32.7338 76.1459 33.0747 76.1459 33.4947V109.08C76.1459 109.5 75.7177 109.841 75.1892 109.841Z" fill="white"/>
</mask>
<g mask="url(#mask70_361_147)">
<path d="M75.1892 109.841C74.6607 109.841 74.2324 109.5 74.2324 109.08V33.4947C74.2324 33.0747 74.6607 32.7338 75.1892 32.7338C75.7177 32.7338 76.1459 33.0747 76.1459 33.4947V109.08C76.1459 109.5 75.7177 109.841 75.1892 109.841Z" fill="white"/>
</g>
<mask id="mask71_361_147" style="mask-type:luminance" maskUnits="userSpaceOnUse" x="69" y="33" width="3" height="75">
<path d="M70.6013 107.802C70.0728 107.802 69.6445 107.461 69.6445 107.041V34.525C69.6445 34.1046 70.0728 33.764 70.6013 33.764C71.1298 33.764 71.558 34.1046 71.558 34.525V107.041C71.558 107.461 71.1298 107.802 70.6013 107.802Z" fill="white"/>
</mask>
<g mask="url(#mask71_361_147)">
<path d="M70.6013 107.802C70.0728 107.802 69.6445 107.461 69.6445 107.041V34.525C69.6445 34.1046 70.0728 33.764 70.6013 33.764C71.1298 33.764 71.558 34.1046 71.558 34.525V107.041C71.558 107.461 71.1298 107.802 70.6013 107.802Z" fill="white"/>
</g>
<mask id="mask72_361_147" style="mask-type:luminance" maskUnits="userSpaceOnUse" x="65" y="36" width="2" height="70">
<path d="M66.0051 105.071C65.4766 105.071 65.0483 104.731 65.0483 104.31V36.9662C65.0483 36.5459 65.4766 36.2053 66.0051 36.2053C66.5336 36.2053 66.9618 36.5459 66.9618 36.9662V104.31C66.9618 104.731 66.5336 105.071 66.0051 105.071Z" fill="white"/>
</mask>
<g mask="url(#mask72_361_147)">
<path d="M66.0051 105.071C65.4766 105.071 65.0483 104.731 65.0483 104.31V36.9662C65.0483 36.5459 65.4766 36.2053 66.0051 36.2053C66.5336 36.2053 66.9618 36.5459 66.9618 36.9662V104.31C66.9618 104.731 66.5336 105.071 66.0051 105.071Z" fill="white"/>
</g>
<mask id="mask73_361_147" style="mask-type:luminance" maskUnits="userSpaceOnUse" x="60" y="40" width="3" height="62">
<path d="M61.4099 101.677C60.8814 101.677 60.4531 101.336 60.4531 100.916V41.1728C60.4531 40.7528 60.8814 40.4119 61.4099 40.4119C61.9384 40.4119 62.3666 40.7528 62.3666 41.1728V100.916C62.3666 101.336 61.9384 101.677 61.4099 101.677Z" fill="white"/>
</mask>
<g mask="url(#mask73_361_147)">
<path d="M61.4099 101.677C60.8814 101.677 60.4531 101.336 60.4531 100.916V41.1728C60.4531 40.7528 60.8814 40.4119 61.4099 40.4119C61.9384 40.4119 62.3666 40.7528 62.3666 41.1728V100.916C62.3666 101.336 61.9384 101.677 61.4099 101.677Z" fill="white"/>
</g>
<mask id="mask74_361_147" style="mask-type:luminance" maskUnits="userSpaceOnUse" x="55" y="46" width="3" height="52">
<path d="M56.8205 97.7432C56.292 97.7432 55.8638 97.4026 55.8638 96.9822V46.8581C55.8638 46.4378 56.292 46.0972 56.8205 46.0972C57.349 46.0972 57.7772 46.4378 57.7772 46.8581V96.9822C57.7772 97.4026 57.349 97.7432 56.8205 97.7432Z" fill="white"/>
</mask>
<g mask="url(#mask74_361_147)">
<path d="M56.8205 97.7432C56.292 97.7432 55.8638 97.4026 55.8638 96.9822V46.8581C55.8638 46.4378 56.292 46.0972 56.8205 46.0972C57.349 46.0972 57.7772 46.4378 57.7772 46.8581V96.9822C57.7772 97.4026 57.349 97.7432 56.8205 97.7432Z" fill="white"/>
</g>
<mask id="mask75_361_147" style="mask-type:luminance" maskUnits="userSpaceOnUse" x="51" y="52" width="3" height="42">
<path d="M52.2277 93.5088C51.6992 93.5088 51.271 93.1682 51.271 92.7478V52.8231C51.271 52.4031 51.6992 52.0622 52.2277 52.0622C52.7562 52.0622 53.1845 52.4031 53.1845 52.8231V92.7478C53.1845 93.1682 52.7562 93.5088 52.2277 93.5088Z" fill="white"/>
</mask>
<g mask="url(#mask75_361_147)">
<path d="M52.2277 93.5088C51.6992 93.5088 51.271 93.1682 51.271 92.7478V52.8231C51.271 52.4031 51.6992 52.0622 52.2277 52.0622C52.7562 52.0622 53.1845 52.4031 53.1845 52.8231V92.7478C53.1845 93.1682 52.7562 93.5088 52.2277 93.5088Z" fill="white"/>
</g>
<mask id="mask76_361_147" style="mask-type:luminance" maskUnits="userSpaceOnUse" x="46" y="57" width="3" height="33">
<path d="M47.6354 89.3174C47.1069 89.3174 46.6787 88.9768 46.6787 88.5564V58.0543C46.6787 57.6339 47.1069 57.2933 47.6354 57.2933C48.1639 57.2933 48.5922 57.6339 48.5922 58.0543V88.5564C48.5922 88.9768 48.1639 89.3174 47.6354 89.3174Z" fill="white"/>
</mask>
<g mask="url(#mask76_361_147)">
<path d="M47.6354 89.3174C47.1069 89.3174 46.6787 88.9768 46.6787 88.5564V58.0543C46.6787 57.6339 47.1069 57.2933 47.6354 57.2933C48.1639 57.2933 48.5922 57.6339 48.5922 58.0543V88.5564C48.5922 88.9768 48.1639 89.3174 47.6354 89.3174Z" fill="white"/>
</g>
<mask id="mask77_361_147" style="mask-type:luminance" maskUnits="userSpaceOnUse" x="42" y="61" width="2" height="25">
<path d="M43.0432 85.4658C42.5147 85.4658 42.0864 85.1252 42.0864 84.7049V62.2745C42.0864 61.8541 42.5147 61.5135 43.0432 61.5135C43.5717 61.5135 43.9999 61.8541 43.9999 62.2745V84.7049C43.9999 85.1252 43.5717 85.4658 43.0432 85.4658Z" fill="white"/>
</mask>
<g mask="url(#mask77_361_147)">
<path d="M43.0432 85.4658C42.5147 85.4658 42.0864 85.1252 42.0864 84.7049V62.2745C42.0864 61.8541 42.5147 61.5135 43.0432 61.5135C43.5717 61.5135 43.9999 61.8541 43.9999 62.2745V84.7049C43.9999 85.1252 43.5717 85.4658 43.0432 85.4658Z" fill="white"/>
</g>
<mask id="mask78_361_147" style="mask-type:luminance" maskUnits="userSpaceOnUse" x="37" y="64" width="3" height="19">
<path d="M38.4508 82.2002C37.9224 82.2002 37.4941 81.8596 37.4941 81.4393V65.608C37.4941 65.1877 37.9224 64.8471 38.4508 64.8471C38.9793 64.8471 39.4075 65.1877 39.4075 65.608V81.4393C39.4075 81.8596 38.9793 82.2002 38.4508 82.2002Z" fill="white"/>
</mask>
<g mask="url(#mask78_361_147)">
<path d="M38.4508 82.2002C37.9224 82.2002 37.4941 81.8596 37.4941 81.4393V65.608C37.4941 65.1877 37.9224 64.8471 38.4508 64.8471C38.9793 64.8471 39.4075 65.1877 39.4075 65.608V81.4393C39.4075 81.8596 38.9793 82.2002 38.4508 82.2002Z" fill="white"/>
</g>
<mask id="mask79_361_147" style="mask-type:luminance" maskUnits="userSpaceOnUse" x="32" y="67" width="3" height="13">
<path d="M33.8552 79.5986C33.3267 79.5986 32.8984 79.258 32.8984 78.8377V68.2274C32.8984 67.8071 33.3267 67.4665 33.8552 67.4665C34.3836 67.4665 34.8119 67.8071 34.8119 68.2274V78.8377C34.8119 79.258 34.3836 79.5986 33.8552 79.5986Z" fill="white"/>
</mask>
<g mask="url(#mask79_361_147)">
<path d="M33.8552 79.5986C33.3267 79.5986 32.8984 79.258 32.8984 78.8377V68.2274C32.8984 67.8071 33.3267 67.4665 33.8552 67.4665C34.3836 67.4665 34.8119 67.8071 34.8119 68.2274V78.8377C34.8119 79.258 34.3836 79.5986 33.8552 79.5986Z" fill="white"/>
</g>
<mask id="mask80_361_147" style="mask-type:luminance" maskUnits="userSpaceOnUse" x="28" y="69" width="3" height="9">
<path d="M29.2712 77.6611C28.7427 77.6611 28.3145 77.3205 28.3145 76.9002V70.2581C28.3145 69.8378 28.7427 69.4972 29.2712 69.4972C29.7996 69.4972 30.2279 69.8378 30.2279 70.2581V76.9002C30.2279 77.3205 29.7996 77.6611 29.2712 77.6611Z" fill="white"/>
</mask>
<g mask="url(#mask80_361_147)">
<path d="M29.2712 77.6611C28.7427 77.6611 28.3145 77.3205 28.3145 76.9002V70.2581C28.3145 69.8378 28.7427 69.4972 29.2712 69.4972C29.7996 69.4972 30.2279 69.8378 30.2279 70.2581V76.9002C30.2279 77.3205 29.7996 77.6611 29.2712 77.6611Z" fill="white"/>
</g>
<mask id="mask81_361_147" style="mask-type:luminance" maskUnits="userSpaceOnUse" x="23" y="71" width="3" height="6">
<path d="M24.676 76.3604C24.1475 76.3604 23.7192 76.0198 23.7192 75.5994V71.8391C23.7192 71.4191 24.1475 71.0782 24.676 71.0782C25.2044 71.0782 25.6327 71.4191 25.6327 71.8391V75.5994C25.6327 76.0198 25.2044 76.3604 24.676 76.3604Z" fill="white"/>
</mask>
<g mask="url(#mask81_361_147)">
<path d="M24.676 76.3604C24.1475 76.3604 23.7192 76.0198 23.7192 75.5994V71.8391C23.7192 71.4191 24.1475 71.0782 24.676 71.0782C25.2044 71.0782 25.6327 71.4191 25.6327 71.8391V75.5994C25.6327 76.0198 25.2044 76.3604 24.676 76.3604Z" fill="white"/>
</g>
</svg>